<?xml version="1.0" encoding="UTF-8"?><svg id="Layer_1" xmlns="http://www.w3.org/2000/svg" viewBox="0 0 1008 612"><defs><style>.cls-1{fill:#fff;}</style></defs><path class="cls-1" d="m797.17,415.78c-.59-.22-.97-.35-1.35-.49-.79-.29-1.52-.16-2.24.25-.64.36-.99.85-.98,1.59,0,.36-.04.72-.04,1.08,0,1.74-.12,3.46-.66,5.15-.29.89-.22,1.9-.36,2.85-.12.82-.3,1.64-.45,2.46-.15.82-.36,1.64-.44,2.47-.09.84-.18,1.67-.57,2.43-.08.16-.18.33-.19.5-.12,2.05-1.05,3.93-1.22,5.96-.02.3,0,.63-.13.88-.62,1.32-.69,2.78-1.04,4.16-.33,1.33-.77,2.63-.9,4.01-.03.29-.22.55-.31.84-.19.63-.41,1.25-.51,1.89-.12.77-.23,1.53-.58,2.25-.18.37-.28.8-.32,1.21-.11.96-.26,1.89-.74,2.76-.17.3-.22.69-.25,1.04-.08.91-.25,1.77-.67,2.59-.19.36-.26.8-.3,1.21-.07.79-.21,1.54-.62,2.23-.03.05-.07.11-.07.16-.21,1.73-.95,3.32-1.28,5.01-.08.41-.08.87-.27,1.22-.48.87-.57,1.81-.78,2.74-.37,1.56-.94,3.07-1.42,4.6-.14.45-.32.91-.38,1.37-.09.66-.2,1.3-.57,1.87-.1.15-.17.32-.22.49-.41,1.49-.81,2.99-1.22,4.48-.11.4-.27.79-.41,1.18-.18.5-.35,1.01-.52,1.52-.19.56-.38,1.13-.56,1.69-.13.4-.3.79-.36,1.2-.1.66-.25,1.29-.64,1.85-.1.14-.16.32-.22.49-.4,1.31-.77,2.63-1.2,3.93-.36,1.07-.77,2.13-1.2,3.17-.48,1.15-1.09,2.26-1.49,3.44-.3.89-.8,1.59-1.42,2.37-1.35-.35-2.75-.71-4.23.03-.56.99-1.42,1.95-1.54,3.21.27.56.73.71,1.21.75.41.04.84,0,1.25,0,.74.01,1,.31.88.99-.15.82-.44,1.51-1.44,1.55-.18,0-.36.05-.53.09-.76.2-.97.45-1,1.27-.02.42.04.84.05,1.26,0,.72,0,1.44,0,2.16.05,2.64-1.12,4.84-2.53,6.95-1.11,1.66-2.48,3.05-4.04,4.29-1.88,1.49-3.75,2.97-5.71,4.35-.46.33-.87.89-1.58.66-.01-.82.33-2.07.67-2.86.52-1.2.99-2.42,1.47-3.64.13-.33.15-.74.35-1.01.7-.94.74-2,.72-3.09-.02-1.69.2-3.34.5-5,.24-1.29.32-2.62.41-3.93.06-1.02.1-2.04.57-2.98.08-.16.15-.34.17-.51.17-1.97.74-3.86,1.17-5.78.16-.7.21-1.42.61-2.05.09-.15.19-.32.21-.49.18-1.31.61-2.54.99-3.8.31-1.02.4-2.11.97-3.05.05-1.53.97-2.82,1.16-4.31.05-.4.26-.79.4-1.18.19-.56.38-1.13.56-1.69.15-.45.28-.91.43-1.36.17-.51.33-1.02.52-1.52.25-.67.68-1.31.75-2,.16-1.46.99-2.67,1.31-4.09.32-1.44,1-2.79,1.51-4.18.12-.33.18-.69.28-1.03.16-.51.33-1.02.5-1.52.15-.45.3-.9.45-1.35.18-.56.36-1.13.55-1.69.15-.45.3-.91.44-1.36.18-.57.36-1.14.53-1.7.14-.45.27-.91.41-1.37.2-.62.4-1.24.61-1.86.11-.34.3-.67.33-1.02.09-.85.53-1.61.67-2.4.31-1.78,1.1-3.39,1.44-5.16.31-1.63.67-3.27,1.11-4.87.37-1.34.73-2.64.77-4.03.01-.47.11-.96.27-1.4.51-1.38.62-2.81.63-4.25,0-1.27.23-2.49.53-3.72.27-1.1.37-2.24.43-3.38.06-1.32.23-2.61.52-3.91.29-1.33.38-2.73.45-4.1.06-1.26.23-2.49.5-3.73.29-1.28.42-2.6.46-3.92.06-1.92.23-3.81.61-5.71.29-1.46.32-2.98.35-4.47.04-1.93.18-3.82.57-5.72.24-1.17.3-2.38.35-3.57.07-1.56.03-3.12.1-4.68.05-1.26.1-2.52.3-3.76.42-2.62.57-5.24.57-7.89,0-5.88,0-11.75,0-17.63,0-1.2.04-2.4.05-3.6,0-1.03.22-2.01.48-3,.28-1.09.4-2.24.46-3.37.06-1.21.23-2.36.56-3.53.3-1.08.31-2.24.45-3.37.11-.89.17-1.79.35-2.66.29-1.37.09-1.91-1.13-2.67-.56-.35-1.11-.7-1.66-1.05-.76-.48-.99-1.15-.74-2.01.31-1.08.27-2.28,1.06-3.2.6-1.93,1.25-3.82,1.16-5.93-.16-3.77-.08-7.55-.11-11.33-.02-1.92-.21-3.82-.51-5.73-.22-1.41-.29-2.86-.34-4.3-.08-2.16-.1-4.31-.74-6.41-.24-.78-.2-1.66-.23-2.5-.04-1.5-.17-2.98-.66-4.43-.25-.72-.27-1.53-.32-2.3-.07-1.08-.18-2.14-.55-3.18-.22-.61-.33-1.28-.37-1.93-.07-1.21-.21-2.37-.72-3.5-.27-.59-.35-1.25-.54-1.96-.42-.09-.82-.23-1.21-.24-1.5-.03-3-.02-4.5-.02-.73,0-1.42.08-2.05.52-.59.41-1.24.45-1.85.02-.68-.47-1.44-.55-2.23-.54-1.14,0-2.28,0-3.42.01-.97,0-1.91.1-2.79.56-.89.46-1.86.35-2.82.31-.95-.04-1.91-.03-2.86-.02-.78,0-1.56.07-2.34.07-4.26,0-8.52,0-12.77,0-1.39,0-2.74.09-4.05.67-.58.26-1.29.24-1.93.36-.93.17-1.26.48-1.37,1.39-.06.47-.05.96-.05,1.44,0,6.06,0,12.11,0,18.17,0,1.15.02,2.27.67,3.29.21.33.25.8.27,1.21.2,5.33.82,10.64.56,15.99-.2,4.13-.25,8.27-.37,12.41,0,.24-.01.48-.04.72-.11.88-.32,1.14-1.2,1.33-1.95.42-3.65,1.41-5.35,2.4-1.23.72-2.42,1.55-3.7,2.17-1.07.51-2.23.88-3.38,1.15-.92.22-1.89.18-2.83-.18-1.22-.48-1.49-.35-2.06.88-1.01,2.16-1.97,4.34-2.99,6.5-.91,1.94-1.85,3.86-2.79,5.79-.48.99-1.19,1.23-2.2.83-.63-.25-1.13-.62-1.53-1.18-1.25-1.77-2.22-3.67-3.04-5.67-.41-.99-.78-1.99-1.15-2.99-.45-1.21-.61-2.43-.63-3.69-.04-2.16-.02-4.32-.11-6.48-.1-2.15-.31-4.3-.46-6.46-.15-2.21-.33-4.43-.39-6.64-.16-6.17-.16-12.35-.42-18.52-.26-5.93-.52-11.86-.54-17.8,0-2.34.01-4.68-.09-7.02-.1-2.27-.34-4.54-.51-6.81-.14-1.85-.3-3.7-.37-5.56-.09-2.46-.07-4.92-.16-7.37-.05-1.44-.16-2.88-.36-4.3-.4-2.86-.51-5.73-.48-8.61,0-.97.05-1.92.58-2.78.12-.2.23-.44.24-.67.07-1.25.79-2.26,1.34-3.3.86-1.64,2.02-3.09,3.28-4.47,3.01-3.3,6.41-6.08,10.31-8.29,1.72-.97,3.5-1.79,5.28-2.61.37-.17.81-.19,1.21-.3.52-.13,1.06-.23,1.55-.44,1.48-.62,3.03-.7,4.59-.56,1.33.12,2.16.95,2.38,2.28.15.89.33,1.76.71,2.59.2.42.23.92.3,1.39.06.41,0,.86.12,1.25.57,1.9.67,3.89,1.12,5.79.43,1.83.69,3.63.81,5.48.04.65.14,1.32.33,1.94.38,1.22.51,2.46.52,3.72.02,2.4.2,4.79.6,7.16.24,1.47.26,2.98.37,4.48.05.59,0,1.21.6,1.6.76.5,1.55,1.04,2.5.67,1.31-.52,2.68-.6,4.05-.7.41-.03.84-.11,1.23-.26.96-.36,1.94-.6,2.97-.65.35-.02.72-.1,1.05-.22,1.23-.44,2.44-.98,3.69-1.35.73-.22,1.53-.26,2.3-.26,6.06-.02,12.11-.01,18.17-.01,2.04,0,4.08.01,6.12,0,1.98-.02,2.19-.2,2.2-2.15.02-6.6,0-13.19.01-19.79,0-1.08.04-2.16,0-3.24-.04-1.16.39-2.09,1.15-2.92,3.9-4.3,7.85-8.56,11.69-12.91,2.58-2.93,5.39-5.62,8.35-8.16,2.14-1.84,4.48-3.41,7.04-4.6,1.28-.6,2.69-.55,4.06-.28.32.06.68.3.88.56.39.52.87,1.08.99,1.69.39,1.92,1.4,3.68,1.27,5.75-.07,1.11.28,2.25.42,3.38.15,1.13.39,2.25.39,3.38.03,9.66.02,19.31,0,28.97,0,1.74-.11,3.46-.57,5.17-.26.97-.22,2.02-.33,3.03-.1.95-.2,1.9-.31,2.85-.04.36-.17.72-.14,1.07.23,2.32.43,4.65.78,6.95.14.88.36,1.75.36,2.66,0,12.05,0,24.11,0,36.16,0,2.16,0,4.32.02,6.48.01,1.08.07,2.15.85,3.04.22.24.28.65.35,1,.06.35.05.72.05,1.08-.02,6.6-.03,13.19-.07,19.79,0,.89-.08,1.81-.28,2.67-.5,2.12-.66,4.27-.67,6.43-.01,1.75-.1,3.48-.55,5.17-.03.12-.06.24-.07.35-.01,1.87-.72,3.45-1.81,4.95-.55.75-.86,1.7-1.18,2.59-.45,1.23-.82,2.49-1.22,3.74-.04.11-.02.25-.08.35-.86,1.41-.81,3.11-1.48,4.59-.15.32-.23.69-.26,1.04-.1,1.38-.31,2.73-.78,4.05-.27.75-.19,1.55.13,2.29.41.96.55,1.96.57,2.98,0,.24,0,.49.06.72.73,2.69-.09,5.36-.14,8.04,0,.29-.07.61-.19.87-.48.99-.61,2.05-.83,3.11-.24,1.16-.66,2.29-1.08,3.41-.44,1.17-1.14,2.26-1.43,3.46-.41,1.74-1.46,3.31-1.33,5.18.01.18-.02.37-.08.53-.7,1.83-.74,3.75-.77,5.67,0,.35-.12.69-.24,1.29Zm-6.43-21.54s.03-.42-.07-.82c-.07-.25-.29-.56-.52-.65-1.23-.5-2.24.17-2.28,1.5-.01.47,0,.95.09,1.41.05.26.25.56.47.7,1.19.72,2.25.16,2.31-1.19,0-.18,0-.35,0-.95Zm-19.39,93.2c.03-1.22-.42-1.77-1.46-1.77-1,0-1.45.49-1.49,1.58-.03.97.37,1.39,1.38,1.42,1.06.04,1.54-.34,1.56-1.23Zm-.98,7.06c.02-.85-.28-1.2-1.13-1.27-.18-.02-.36-.02-.54-.02-1.05.02-1.37.38-1.3,1.44.02.23.04.49.14.69.09.2.25.43.44.53,1.17.61,2.35-.08,2.39-1.38Zm-11.39,17.03c-.12.02-.42.04-.69.13-.15.05-.32.2-.38.34-.26.65-.21,1.29.22,1.85.33.43.83.43,1.31.37.85-.11,1.28-.68,1.25-1.65-.02-.73-.39-1.01-1.36-1.05-.06,0-.12,0-.36,0Zm18.3-42.39c.02-.91-.41-1.52-1.09-1.56-.84-.04-1.62.7-1.62,1.52,0,.82.79,1.6,1.59,1.58.66-.02,1.1-.63,1.12-1.55Zm4.79-15.85c-.01-.14-.02-.32-.05-.49-.07-.42-.18-.83-.67-.96-.48-.12-.98-.13-1.34.24-.24.25-.43.57-.54.9-.16.48-.1.96.32,1.31.51.42,1.11.44,1.7.24.55-.19.57-.7.58-1.24Zm3.78-48.22c.02-1.53-.63-2.04-1.86-1.62-.65.22-.96.86-.84,1.75.06.44.25.8.68.96.57.21,1.15.31,1.68-.1.13-.1.22-.28.27-.44.06-.22.06-.47.07-.55Zm-34.49-121.96c.8.64.86.67,1.25.7.97.06,1.44-.44,1.36-1.42-.06-.63-.49-.95-1.11-.84-.91.16-1.19.86-1.49,1.56Z"/><path class="cls-1" d="m200.87,358.59c-.79-1.05-.66-2.07-.11-3.05.35-.62.81-1.19,1.26-1.75.72-.88,1.46-1.75,2.2-2.6,1.4-1.6,1.4-3.27-.1-4.73-1.92-1.89-3.74-3.88-5.4-5.99-1.73-2.2-3.47-4.41-4.79-6.91-.44-.83-.47-1.52,0-2.35.82-1.47,1.66-2.89,2.89-4.07,1.13-1.1,2.48-1.85,3.86-2.55.54-.28,1.16.22,1,.8-.26.92-.61,1.81-.98,2.89.33.6.81,1.37.85,2.28.88,1.04,1.1,2.47,2.14,3.46,2.07,1.97,4.04,4.06,6.05,6.1.12.12.3.18.51.3.69-.34,1.28-.8,1.72-1.47,1.25-1.89,2.55-3.75,3.82-5.63.29-.42.68-.69,1.17-.75.48-.06.96-.06,1.34.52-.55.85-.69,1.9-1.33,2.82-.7,1.01-1.08,2.24-1.61,3.37-.53,1.13-1.07,2.25-1.62,3.36-.13.26-.33.49-.52.77.23,1.1.86,2,1.56,2.78,2.44,2.7,4.96,5.34,7.45,7.99.33.35.68.68,1.07.96.83.6,1.69,1.13,1.7,2.34,0,.25.3.5.48.74,1.26,1.66,2.47,3.36,3.76,5.01,1.43,1.81,2.79,3.72,3.83,5.81.09.19.33.41.51.42.35.03.51-.3.54-.6.07-.71.14-1.43.14-2.15,0-5.16-.02-10.32-.06-15.47-.06-7.2-.09-14.39-.24-21.59-.09-4.25-.44-8.5-.61-12.76-.13-3.35-.18-6.71-.25-10.07-.05-2.1-.03-4.2-.14-6.29-.08-1.61-.26-3.23-.49-4.83-.28-1.9-.5-3.8-.52-5.73-.01-1.68-.07-3.36-.11-5.04-.05-1.92-.27-3.82-.57-5.72-.29-1.83-.48-3.69-.53-5.54-.16-6.3-.41-12.59-.83-18.87-.21-3.17-.15-6.35-.27-9.53-.03-.92.31-1.58.93-2.22,1-1.05,2.14-1.92,3.32-2.72,1.83-1.24,3.74-2.33,5.74-3.29.32-.15.66-.27,1-.38.23-.07.52-.04.69-.17,1.29-.92,2.94-.98,4.29-1.76.45-.26,1.01-.34,1.52-.47.93-.23,1.86-.46,2.79-.64.94-.18,1.88-.36,2.83-.44.99-.09,1.79.39,2.23,1.24.55,1.05,1.28,2.01,1.4,3.28.09.95,1.48,2.22,2.47,2.3,1.85.14,3.71.25,5.47-.6.58-.28,1.25-.39,1.9-.47.9-.11,1.75-.3,2.58-.7.58-.28,1.25-.41,1.89-.49,1.25-.16,2.5-.25,3.76-.35.54-.04,1.08-.04,1.62-.01,1.92.1,3.83.24,5.75.32,1.15.05,2.27.17,3.33.65,1,.46,2.09.51,3.17.54,1.21.03,2.37.2,3.51.66.65.27,1.4.39,2.1.4,2.46.05,4.92.1,7.37.01,1.25-.04,2.49-.36,3.73-.56.89-.14,1.77-.32,2.66-.41.9-.08,1.78-.02,2.56.6.68.53,1.51.53,2.2.08,1.08-.71,2.25-.73,3.46-.72,3,.02,6,.1,8.93.88.46.12.95.16,1.42.2.91.07,1.78.24,2.54.79.19.14.41.27.64.32,1.65.35,2.58,1.66,3.7,2.72.16.15.24.41.31.64.28.91.55,1.83.81,2.75.57,1.98.31,3.83-1.12,5.36-.55.59-.74,1.18-.74,1.93,0,5.22-.01,10.44.01,15.65.01,2.12.52,2.57,2.69,2.69.53.03,1.05.09,1.65.14.31,1.75.32,3.44.01,5.06-.15.82-.89,1.53-1.37,2.28-.06.1-.18.17-.24.27-1.73,2.7-1.62,1.74-1.62,4.76,0,2.04.05,4.08.15,6.11.05,1.07.16,2.16.4,3.21.56,2.5.55,5.01.13,7.51-.38,2.26-.56,4.52-.59,6.8-.04,3-.05,6-.09,9-.03,2.47.83,4.57,2.58,6.28.57.56.89,1.1.58,1.99-1.8.72-3.34,1.94-4.68,3.38-.61.65-1.15,1.38-1.61,2.14-.71,1.18-.5,2.63.49,3.63.59.6,1.21,1.16,1.87,1.68.52.41.75.92.77,1.55.02.72,0,1.44-.02,2.16,0,.23-.05.5-.17.69-1.12,1.68-1.79,3.61-3.09,5.2-.93,1.15-1.58,2.53-2.56,3.67-1.6,1.86-3.19,3.73-4.8,5.57-1.35,1.54-3,2.75-4.7,3.87-1.28.84-2.38.59-3.2-.69-.19-.3-.33-.65-.57-.91-.48-.52-.63-1.14-.65-1.82-.05-1.45-.31-2.84-.86-4.2-.26-.64-.29-1.41-.31-2.12-.06-1.74-.25-3.46-.74-5.15-.25-.85-.31-1.77-.37-2.66-.09-1.26-.06-2.52-.15-3.77-.07-.95-.17-1.92-.41-2.84-.44-1.7-.7-3.41-.64-5.16.05-1.44-.29-2.73-1.23-3.83-.61-.72-.71-1.44-.29-2.31.25-.52.36-1.15.36-1.73-.03-5.94-.07-11.87-.19-17.81-.03-1.49-.36-2.97-.55-4.46-.15-1.25-.42-2.5-.41-3.74,0-1.64-.59-3.03-1.32-4.42-.21-.4-.54-.65-.99-.69-.6-.05-1.2-.08-1.79-.08-2.7,0-5.4,0-8.1,0-2.28,0-4.55-.01-6.83-.02-.91,0-1.78-.08-2.59-.59-.38-.24-.9-.37-1.36-.38-1.56-.03-3.13-.09-4.64.37-1.39.42-2.82.57-4.26.58-1.62.01-3.23.07-4.72.87-.45.24-1.05.22-1.58.3-.47.08-1,.02-1.41.22-1.08.52-2.16.93-3.33,1.24-.94.25-1.59,1.08-1.58,2.18.03,3.83-.2,7.68.77,11.45.22.86.27,1.78.32,2.67.07,1.32.04,2.64.11,3.96.05.96.09,1.93.32,2.86.58,2.35.69,4.75.72,7.14.04,3.3.02,6.6.03,9.9,0,1.15-.06,2.27-.73,3.28-.19.29-.26.67-.32,1.02-.13.79-.42,1.46-.93,2.1-.62.77-.81,1.75-.7,2.72.47,4.36.17,8.75.46,13.12.12,1.73.3,3.46.54,5.18.3,2.2.53,4.4.43,6.63-.09,2.1-.16,4.19-.23,6.29-.05,1.62-.24,3.22-.54,4.82-.25,1.35-.28,2.74-.35,4.11-.05,1.09-.12,2.15-.63,3.15-.19.37-.33.79-.35,1.2-.06,1.07-.47,1.92-1.17,2.74-.73.86-1.45,1.77-1.53,2.99,0,.11-.05.25-.12.33-.9,1.05-.82,2.33-.85,3.59-.07,2.94-.15,5.87-.2,8.81-.01.78.1,1.55.15,2.33.07.98.47,1.72,1.44,2.08.27.1.52.28.74.4.37.81.21,1.59.13,2.36-.03.27-.2.59-.41.77-.66.56-.79,1.32-.93,2.09-.52,2.89-1.04,5.78-.95,8.75.03,1.03-.16,2.02-.52,3-.24.67-.38,1.38-.5,2.09-.11.66-.07,1.31.34,1.9.57.82.57,1.67.05,2.53-.42.71-.54,1.61-1.36,2.07-.6,1.17-1.28,2.31-.99,3.72.97,4.81.57,9.68.58,14.53,0,.63-.27,1.27-.45,1.9-.17.57-.48,1.11-.56,1.69-.16,1.13-.2,2.27-.94,3.23-.14.18-.19.45-.2.68-.06,1.04-.27,2-.96,2.83-.18.21-.23.55-.27.85-.13.78-.32,1.51-.78,2.18-.23.33-.25.79-.39,1.18-.14.39-.3.78-.46,1.16-.26.6-.53,1.19-.79,1.79-.17.38-.34.76-.51,1.14-.21.49-.42.97-.62,1.47-.07.17-.03.39-.13.52-.8,1.01-.99,2.29-1.54,3.41-.26.53-.47,1.1-.7,1.65-.09.22-.14.46-.25.67-.59,1.1-1.38,2.13-1.76,3.29-.41,1.26-1.09,2.38-1.65,3.54-.55,1.16-.88,2.47-1.77,3.48-.12.13-.23.29-.29.45-.57,1.57-1.51,2.96-2.21,4.45-.86,1.83-1.96,3.53-2.71,5.42-.33.82-.79,1.61-1.28,2.35-1.08,1.64-1.99,3.39-2.92,5.1-.91,1.67-2.21,3.13-2.77,4.99-1.11,1.34-1.84,2.91-2.82,4.34-1.07,1.57-2.05,3.21-3.09,4.81-.29.45-.64.86-.97,1.28-1.17,1.51-2.36,3-3.51,4.53-.37.49-.8.68-1.37.69-.12,0-.24.03-.36,0-2.24-.48-3.95.52-5.49,1.98-.08.07-.22.09-.42.16-.12-.14-.37-.29-.39-.47-.05-.4-.11-.89.07-1.22.47-.89,1.01-1.76,1.62-2.57.65-.85,1.4-1.63,2.13-2.42.81-.87,1.68-1.68,2.12-2.85.2-.54.71-.95,1.02-1.46,1.62-2.72,3.23-5.43,4.78-8.19.61-1.08.94-2.34,1.86-3.25,1.15-2.55,2.51-4.99,3.77-7.49.74-1.48,1.5-2.99,2.01-4.56.49-1.48,1.54-2.71,1.71-4.31.03-.34.29-.65.42-.98.22-.55.45-1.1.64-1.67.12-.34.09-.76.28-1.03.73-1.04.82-2.22.96-3.42.05-.47.21-.95.43-1.36.5-.93.67-1.92.68-2.95,0-1.51.2-2.98.51-4.46.19-.87.22-1.79.2-2.68-.08-3.66-.16-7.31-.31-10.97-.47-11.45-.36-22.91-.43-34.36-.03-5.28-.06-10.56-.07-15.83,0-1.39-.18-2.73-.54-4.08-.3-1.15-.43-2.36-.48-3.55-.09-1.98-.09-3.96-.07-5.94.03-2.42-.28-4.78-.85-7.12-.35-1.46-.63-2.93-.97-4.39-.32-1.4-.47-2.88-1.35-4.07-.89-1.2-.34-2.72-1.05-3.95-.39-.67-.66-1.41-.96-2.13-.32-.77-.6-1.56-.91-2.34-.15-.39-.26-.81-.48-1.16-1.41-2.29-2.83-4.58-4.28-6.85-.29-.45-.68-.83-1.07-1.21-2.52-2.48-4.75-5.2-6.94-7.97-1.56-1.97-3.3-3.78-4.96-5.66-.28-.31-.57-.62-.91-.87-.73-.54-1.63-.51-2.31.07-.36.31-.69.66-1.01,1.02-1.23,1.39-2.46,2.77-3.65,4.18-.45.53-1.01.79-1.69,1.02Zm64.74-79.91v-.08c.78,0,1.56.05,2.33-.02.65-.06,1.32-.16,1.91-.42,1.07-.46,2.17-.67,3.32-.7,1.2-.04,2.38-.21,3.49-.73.42-.2.92-.35,1.38-.36,2.23-.03,4.4-.47,6.57-.93.7-.15,1.43-.21,2.14-.22,2.1-.04,4.19-.04,6.29-.05.91,0,1.77.2,2.63.51.73.25,1.5.42,2.26.51,1.66.21,3.33.38,5,.51.58.05,1.2,0,1.77-.13.77-.18,1.2-.77,1.27-1.56.03-.35-.03-.71-.07-1.07-.12-1.01-.3-2.01-.38-3.02-.17-2.37-.59-2.78-2.92-2.91-1.07-.06-2.18-.08-3.19-.4-1.51-.48-3.03-.67-4.59-.77-.77-.05-1.59-.1-2.28-.41-1.19-.54-2.4-.69-3.66-.76-.65-.03-1.35-.09-1.93-.35-1.24-.55-2.53-.68-3.85-.77-.77-.05-1.61-.08-2.27-.41-1.29-.64-2.63-.78-4.01-.82-.42-.01-.84.01-1.26-.03-1.49-.16-2.98-.27-4.45-.54-1.96-.37-3.91-.53-5.9-.46-.91.03-1.6.37-2,1.25-.4.86-1.07,1.59-1.17,2.6-.03.27-.23.55-.41.78-.73.95-.78,2.06-.45,3.09.43,1.35.42,2.71.44,4.08.01,1.08,0,2.16.07,3.23.06.89.48,1.29,1.38,1.35.83.06,1.68.01,2.52.01Zm-2.3,40.22c0-.57-.32-.94-.59-.84-.37.13-.53.43-.48.81.04.32.26.56.58.46.22-.07.38-.33.49-.43Zm-.84,16.47c-.28-.32-.42-.61-.65-.7-.31-.13-.55.12-.64.42-.08.27.15.67.42.64.25-.02.49-.2.86-.37Z"/><path class="cls-1" d="m686.96,289.59c.35.98.23,1.79-.27,2.51-.89,1.27-1.73,2.6-2.77,3.75-1.13,1.24-1.67,2.75-2.31,4.22-.18.42-.19.95-.16,1.42.11,1.61.2,3.23.43,4.83.24,1.67.46,3.32.45,5.01-.02,3.9.02,7.8-.04,11.69-.03,1.61-.19,3.23-.4,4.84-.34,2.56-.47,5.13-.47,7.72,0,1.08.06,2.16.58,3.15.11.21.19.45.21.68.21,1.91,1.27,3.3,2.79,4.49-.26.64-.69,1.08-1.3,1.38-1.79.9-3.26,2.2-4.5,3.77-1.19,1.51-1.34,3.93-.27,5.55.42.64.93,1.25,1.5,1.77,1.07.99,1.41,2.06,1.12,3.54-.25,1.29-.87,2.36-1.48,3.42-1.59,2.74-3.39,5.34-5.42,7.79-1.8,2.17-3.68,4.25-5.61,6.3-1.02,1.08-2.22,1.83-3.5,2.45-1.21.59-2.17.38-2.79-.73-.79-1.42-1.44-2.9-1.55-4.54-.08-1.33-.23-2.61-.71-3.87-.21-.55-.25-1.17-.27-1.76-.06-1.38-.22-2.73-.64-4.07-.24-.79-.28-1.65-.31-2.49-.07-1.62-.24-3.22-.65-4.8-.26-.97-.31-2.01-.33-3.03-.06-2.59-.28-5.15-.85-7.68-.15-.65-.27-1.26-.78-1.77-.54-.54-.68-1.2-.41-1.98.17-.49.13-1.07.13-1.6-.03-6.78-.07-13.55-.12-20.33-.01-1.74-.19-3.47-.58-5.17-.2-.87-.31-1.79-.27-2.67.07-1.51-.55-2.8-1.13-4.11-.13-.29-.48-.58-.78-.67-.62-.18-1.29-.29-1.94-.29-3.12-.03-6.24-.02-9.36-.02-.9,0-1.78,0-2.63-.45-.84-.44-1.76-.44-2.59.05-.76.44-1.46.32-2.24.09-1.03-.31-2.09-.52-3.15-.72-.4-.08-.84-.01-1.25,0-2.39.13-4.79.26-7.18.39-1.38.07-2.74.13-4.06.67-.59.24-1.29.26-1.94.31-.84.07-1.67.15-2.45.52-.21.1-.45.23-.68.24-1.47.06-2.76.7-4.12,1.16-1.26.43-1.85,1.04-1.86,2.3-.03,3.54-.12,7.07.42,10.59.21,1.36.28,2.74.34,4.12.08,1.86.14,3.71.69,5.51.24.79.27,1.66.29,2.49.13,4.26.28,8.51.32,12.77.02,2.39-.14,4.79-.23,7.19-.03.85-.23,1.63-.71,2.38-.54.85-.89,1.81-1.37,2.71-.41.78-.54,1.58-.36,2.43.41,1.95.42,3.93.43,5.91.02,3.48.14,6.95.62,10.41.2,1.48.27,2.99.29,4.48.04,4.38.01,8.76.02,13.13,0,1.33-.2,2.62-.46,3.92-.25,1.23-.32,2.49-.47,3.74-.08.65-.04,1.35-.26,1.95-.42,1.14-.71,2.28-.79,3.49-.02.33-.21.68-.41.96-.28.39-.65.7-.96,1.06-.67.78-1.26,1.59-1.46,2.63-.05.24-.04.51-.16.7-.87,1.28-.76,2.74-.85,4.17-.06,1.02-.17,2.03-.3,3.04-.33,2.57-.33,5.14-.21,7.72,0,.12.02.24.02.36.07,1.73.84,2.94,2.51,3.56.87.33,1.06.75.54,1.5-1.16,1.68-1.59,3.54-1.89,5.52-.32,2.08-.59,4.15-.62,6.25-.02,1.09-.2,2.13-.48,3.18-.54,2.04-.8,4.11-.2,6.2.27.94-.09,1.77-.55,2.56-.24.41-.53.8-.86,1.15-.82.85-1.01,1.88-.96,2.99.16,4.19.34,8.39.49,12.58.02.54-.01,1.08-.06,1.61-.08,1.02-.16,2.03-.29,3.04-.07.59-.15,1.2-.38,1.74-.31.73-.5,1.47-.55,2.26-.02.3.02.65-.12.88-.79,1.3-.85,2.84-1.45,4.22-.47,1.08-.8,2.24-1.29,3.32-.62,1.35-.98,2.8-1.71,4.11-.43.78-.71,1.64-1.04,2.46-.74,1.82-1.43,3.66-2.23,5.46-.77,1.74-1.67,3.43-2.49,5.15-.79,1.67-1.56,3.35-2.34,5.03-.33.7-.66,1.4-1.01,2.09-1.01,2.02-2.02,4.05-3.06,6.05-.91,1.75-1.85,3.48-2.8,5.21-1.38,2.51-2.76,5.01-4.19,7.49-1.65,2.84-3.36,5.64-5.04,8.46-.58.97-1.14,1.96-1.73,2.93-1.81,2.96-3.91,5.72-6.06,8.44-.7.88-1.35,1.83-2.44,2.46-.25-.07-.54-.13-.8-.24-.59-.25-1.16-.26-1.74,0-.86.39-1.82.6-2.49,1.37-.22.25-.59.37-.92.57-.54-.42-.45-.9-.21-1.31,1.05-1.75,2.2-3.42,3.74-4.79.39-.35.78-.74,1.07-1.18,2.63-3.92,4.95-8.03,7.28-12.13,1.38-2.43,2.67-4.92,3.93-7.41.83-1.64,1.44-3.41,2.35-5.01,1.01-1.77,1.61-3.72,2.52-5.53.56-1.11.84-2.35,1.26-3.53.51-1.4,1.05-2.78,1.56-4.18.12-.33.19-.69.27-1.04.08-.35.04-.75.21-1.05.72-1.31.81-2.74.89-4.18.01-.24.05-.48.13-.71.66-1.91.69-3.89.65-5.87-.15-8.69-.32-17.39-.49-26.08-.12-6.12-.28-12.23-.34-18.35-.07-7.38-.06-14.75-.06-22.13,0-1.81-.15-3.59-.6-5.35-.22-.86-.32-1.78-.33-2.67-.06-5.22-.11-10.43-.09-15.65.08-15.89.31-31.79-.23-47.68-.41-12.11-.68-24.22-.71-36.33,0-3.6-.21-7.18-.66-10.76-.33-2.67-.29-5.38-.33-8.08-.01-.7.26-1.4.45-2.09.38-1.38.85-2.75,1.2-4.14.64-2.56,1.35-5.1,2.34-7.55,1.61-4,3.11-8.06,4.86-12,1.85-4.16,3.89-8.24,5.95-12.3,1.14-2.24,2.52-4.36,3.77-6.54,1.23-2.13,2.45-4.26,3.66-6.4.74-1.3,1.45-2.62,2.2-3.92.14-.25.36-.46.51-.64.21.01.37-.03.44.03.83.7,1.79.87,2.85.85,1.92-.04,3.82-.1,5.68-.73,1.18-.4,2.46-.45,3.59-1.06.3-.16.7-.14,1.06-.16,1.03-.05,2.03-.2,2.97-.64.27-.12.57-.22.86-.24,2.33-.15,4.68-.35,6.98.26,1.47.39,2.94.58,4.44.61,1.02.02,2.03.07,2.97.58.36.19.8.24,1.21.31,1.53.26,3.07.51,4.61.74.83.12,1.67.22,2.5.24,2.28.04,4.56.05,6.84.04,1.56-.01,3.11-.19,4.63-.59.75-.19,1.54-.24,2.31-.3.73-.06,1.43.05,2.07.46,1.06.69,2.21.64,3.26.11.96-.48,1.92-.61,2.95-.6,1.38.02,2.76.02,4.14,0,1.45,0,2.87.08,4.25.6.44.17.94.27,1.41.26,2.08-.06,3.82.83,5.53,1.84,1.31.77,2.26,1.83,3.03,3.18,1.14,1.99.82,4.05.68,6.12-.03.42-.36.92-.71,1.2-.88.73-1.1,1.65-1.08,2.73.03,1.8,0,3.6,0,5.4,0,3.54,0,7.08,0,10.62,0,.54-.02,1.08.03,1.62.11,1.25.97,2.09,2.21,2.14.96.04,1.92,0,2.88.03.46.02.92.12,1.35.19Zm-34.84-5.7c-.85-.45-1.7-.3-2.53-.38-.77-.08-1.59-.05-2.3-.31-1.38-.5-2.8-.61-4.24-.69-.71-.04-1.44-.14-2.1-.37-.98-.35-1.97-.49-2.99-.56-.59-.04-1.26,0-1.76-.26-1.05-.52-2.15-.7-3.29-.79-.41-.03-.83-.16-1.2-.33-.84-.37-1.72-.49-2.62-.55-.65-.05-1.36-.04-1.94-.29-1.31-.55-2.66-.68-4.04-.73-.78-.03-1.56-.08-2.32-.23-2.78-.57-5.59-.67-8.41-.68-1.02,0-2.04,0-3.06.02-.64,0-1.15.22-1.45.85-.33.7-.66,1.41-1.09,2.05-.78,1.18-.76,2.64-1.41,3.86-.13.25-.04.73.12,1.01.51.88.57,1.82.57,2.78,0,.96,0,1.92,0,2.88,0,.96-.02,1.92.03,2.88.04.94.39,1.25,1.35,1.31.24.02.48,0,.72-.01,1.38-.05,2.75-.12,4.13-.16,1.2-.04,2.38-.16,3.53-.58.61-.22,1.29-.33,1.94-.32,1.42.02,2.67-.64,4.01-.9,1.34-.27,2.74-.15,4.07-.66.6-.23,1.28-.34,1.93-.37,2.58-.1,5.15-.26,7.68-.79.95-.2,1.92-.2,2.84.13,1.32.47,2.69.54,4.07.64,1.07.08,2.15.21,3.19.45,2.07.48,4.16.54,6.26.46,1.2-.05,1.58-.48,1.67-1.68.2-2.68-.46-5.21-1.33-7.67Zm-44.62,51.85c-.95-.01-1.42.38-1.4,1.19.02.8.57,1.36,1.33,1.37.83.02,1.44-.62,1.41-1.48-.02-.71-.46-1.07-1.33-1.08Zm-.93,19.6c.18-.02.24-.03.3-.04.7-.08,1.08-.52,1.04-1.2-.03-.6-.38-.95-1.05-.97-.35-.01-.71.03-1.06.11-.38.09-.58.4-.63.78-.06.45.06.85.49,1.05.32.15.67.2.9.26Zm67.98,6.22c.05.24.06.48.14.69.14.37.46.51.84.52.36,0,.71-.05.89-.42.37-.79-.19-1.74-1.08-1.78-.19,0-.43.17-.56.34-.13.17-.16.43-.23.65Zm-72.4,32.39c.01.62.34,1.01.8.97.6-.06.99-.5.96-1.07-.04-.6-.47-.99-1.06-.96-.45.02-.72.43-.7,1.07Zm3.79-65.11c-.24.16-.43.27-.58.41-.05.05-.01.23.04.31.2.27.62.31.92.07.07-.06.14-.24.11-.29-.12-.17-.29-.3-.49-.5Z"/><path class="cls-1" d="m532.35,218.66c.88-.53,1.66-.57,2.54-.46,1.06.14,2.15.08,3.23.05.73-.02,1.25.2,1.62.87.66,1.22,1.52,2.3,2.52,3.26.55.52.79,1.18.92,1.91.36,2.02.99,3.96,1.96,5.77.62,1.16,1.26,2.33,2.03,3.38,1.69,2.3,3.9,3.7,6.9,3.44.17-.01.35.05.6.08.14.3.32.6.43.94.8,2.45,1.63,4.89,3.05,7.08.41.63.47,1.35.48,2.08.02,1.2,0,2.4.01,3.6,0,3.36.01,6.72,0,10.08,0,1.27.13,2.5.49,3.73.23.8.34,1.64.39,2.48.07,1.38.07,2.76.07,4.14,0,4.68-.02,9.36,0,14.03,0,1.98.12,3.95.15,5.93.02,1.62.07,3.23.14,4.84.08,1.97-.13,3.95-.32,5.92-.19,1.98-.25,3.95-.06,5.92.06.6.08,1.2.07,1.8-.14,11.93-.3,23.87-.43,35.8-.05,4.62-.06,9.24-.08,13.85,0,.96-.03,1.91-.33,2.85-.18.59-.43,1.11-.89,1.53-1.01.94-1.99,1.91-3.41,2.22-1.32,1.05-3.1.83-4.52,1.64-2.29.03-4.45.92-6.71,1.1-1.67.13-3.36.08-5.03.13-2.88.09-5.75.22-8.63.29-1.62.04-3.24.06-4.86.02-5.46-.13-10.91-.28-16.37-.42-.79-.02-1.55-.1-2.25-.52-.25-.15-.56-.29-.84-.29-1.54,0-2.9-.67-4.29-1.17-1.56-.57-3.07-1.3-4.52-2.13-3.74-2.14-6.87-5-9.44-8.43-1.5-2-2.82-4.13-3.75-6.49-.39-.99-.83-1.97-1.23-2.97-.29-.73-.52-1.45-.65-2.23-.09-.52-.28-1.04-.5-1.53-.8-1.74-.09-2.22.99-2.99.63-.44,1.35-.76,2.01-1.18.24-.15.44-.4.59-.64.27-.42.06-.87-.43-.93-.36-.05-.72-.04-1.08-.08-.89-.1-1.79-.18-2.68-.34-.84-.15-1.42-.63-1.5-1.55-.08-.89-.21-1.78-.22-2.68-.07-7.14-.09-14.27-.18-21.41-.03-2.58-.15-5.16-.39-7.72-.46-4.91-.41-9.82-.41-14.74,0-1.62.02-3.24.07-4.86.06-1.88.82-3.47,2.12-4.8,2.31-2.37,4.97-4.29,7.78-6.02,1.78-1.1,3.58-2.15,5.48-3.03,1.08-.5,2.12-1.13,3.25-1.46,1.62-.47,3.33-.66,4.97-.11,1.28.42,2.06,1.52,2.24,2.81.3,2.14.24,4.31.01,6.46-.04.39-.28.78-.5,1.13-.61.93-.92,1.94-.92,3.05,0,.24,0,.48,0,.72,0,9.12,0,18.23,0,27.35,0,.48-.03.97.05,1.44.39,2.26.43,4.53.51,6.81.02.7.28,1.4.43,2.1.16.76.34,1.51.49,2.27.06.29-.02.62.07.89.49,1.47.88,2.96,1.28,4.46.17.63.39,1.24.61,1.86.35,1.01.68,2.03,1.09,3.01.61,1.49,1.23,2.98,1.94,4.42.5,1.01,1.17,1.94,1.74,2.92,1.26,2.18,2.66,4.25,4.38,6.1,1.89,2.03,4.1,3.66,6.59,4.89.58.29,1.32.26,1.88.56,1.8.98,3.73.72,5.63.72.38,0,.78-.25,1.12-.47.35-.22.65-.53.96-.81.56-.5.84-1.1.9-1.88.1-1.55.34-3.1.47-4.65.14-1.61.31-3.23.32-4.84.02-5.28-.03-10.55-.05-15.83,0-1.44-.01-2.88.01-4.32.06-3.9.13-7.79.2-11.69.02-1.14,0-2.28.1-3.42.47-4.91.44-9.83.39-14.74-.03-3.35.26-6.69.17-10.04-.1-3.48-.08-6.96-.11-10.43,0-.84-.02-1.68.03-2.52.06-.96.05-1.92-.2-2.86-.06-.23-.09-.47-.11-.71-.14-2.46-.67-4.85-1.3-7.23-.55-2.08-1.01-4.19-1.6-6.26-1.06-3.67-2.21-7.32-3.56-10.9-1.46-3.88-3.22-7.62-5.16-11.26-1.23-2.31-2.72-4.5-4.23-6.65-.92-1.31-2.08-2.44-3.15-3.64-2.02-2.27-3.98-4.6-6.12-6.75-.92-.93-1.86-2.06-3.37-2.17-.23-.02-.47-.12-.67-.24-1.36-.86-2.08-1.34-1.48-3.64.84-.41,1.82-.73,2.45-1.58.28-.38.67-.69.9-1.09.35-.59.83-.99,1.3-1.36.15.03.22.02.26.05.62.55,1.19,1.2,1.88,1.64.64.4,1.48.49,2.12.89.69.44,1.39.68,2.18.73.3.02.6.02.9.06.87.12,1.16.38,1.3,1.22.09.53.1,1.08.17,1.61.04.29.12.58.23.86.12.31.66.48.92.28.28-.22.5-.51.79-.73.43-.32.98-.24,1.25.21.22.35.39.74.51,1.14.23.82.66,1.51,1.28,2.2.81-.57,1.07-1.35,1.1-2.2.05-1.08.01-2.16.03-3.24,0-.71.04-1.42.07-2.38.35.27.57.36.66.52.43.8.68,1.67.71,2.58.05,1.47.68,2.79,1.11,4.15.24.74.95,1.37,1.55,1.93.26.24.77.25,1.18.28.66.03,1.32-.03,1.98-.02.82,0,1.32.46,1.63,1.19.4.95.34,1.92-.15,2.78-.57,1-.95,2.06-1.36,3.12-.65,1.68-.59,3.4-.47,5.13.02.23.1.47.2.69.24.55.89.6,1.28.09.17-.22.3-.46.51-.8.74,1.19.99,2.41,1.39,3.6.19-.14.31-.18.36-.27.06-.1.07-.23.07-.34-.08-2.81-.17-5.62-.26-8.51Zm24.17,85.77c-1.49-.4-1.75-.28-1.69,1.06.08,1.73.25,3.46.46,5.18.15,1.25.41,2.48.64,3.71.04.2.16.38.37.84.12-.53.21-.75.22-.97.06-3.06.11-6.11.15-9.17,0-.23-.11-.46-.16-.66Z"/><path class="cls-1" d="m440.86,302.17c.15-.18.33-.42.54-.63.45-.46.69-.99.52-1.63-.16-.6.03-1.07.5-1.42.49-.36.6-.87.61-1.43,0-.68.15-1.31.6-1.84.08-.09.18-.2.19-.3.08-1.4.71-2.63,1.19-3.91.52-1.39.88-2.85,1.43-4.24.29-.73.62-1.41.7-2.2.03-.29.15-.59.31-.83.42-.62.62-1.29.68-2.02.02-.23.08-.51.23-.67.59-.61.71-1.35.79-2.14.04-.33.2-.71.42-.95.39-.43.63-.87.48-1.46-.01-.06,0-.12,0-.18,0-.74.77-1.05.98-1.67.19-.56-.12-1.27.39-1.7.66-.55.69-1.36,1.04-2.03.69-1.32,1.57-2.52,2.53-3.66,2.69-3.19,5.37-6.38,8-9.62.56-.68.91-1.54,1.34-2.32.14-.26.17-.59.34-.83.73-1.01,1.38-2.07,2.93-2,.95.04,1.86-.37,2.71-.86.68-.39,1.42-.65,2.23-.53,1.02.14,1.55,1.12,1.03,2-1.18,2-2.39,3.97-3.59,5.96-.12.2-.22.42-.29.64-.07.23-.02.5-.12.7-.29.58-.71,1.11-.92,1.71-.21.61-.17,1.28-.66,1.82-.26.28-.32.75-.45,1.14-.1.28-.08.66-.27.84-.68.64-.71,1.45-.85,2.29-.11.61-.62,1.13-.84,1.73-.21.6-.05,1.3-.52,1.87-.25.3-.41.74-.46,1.14-.07.67-.16,1.3-.73,1.76-.13.11-.25.3-.26.46-.04,1.05-.68,1.89-.95,2.83-.25.87-.52,1.67-.98,2.45-.23.38-.27.91-.28,1.38-.02.66.05,1.32.12,1.97.07.72.04,1.38-.31,2.07-.56,1.09-.44,2.34-.43,3.54,0,.66.11,1.32.11,1.97,0,.41,0,.89-.2,1.21-.8,1.32-.8,2.77-.61,4.19.29,2.11.09,4.18-.18,6.26-.16,1.25-.27,2.51-.24,3.76.07,2.64.23,5.27.38,7.9.03.59.08,1.22.29,1.76.69,1.82.83,3.73,1.06,5.64.3,2.5.63,5,.99,7.49.13.88.15,1.81.76,2.55.04.04.05.11.06.17.51,2.77,1.4,5.45,1.74,8.25.1.83.21,1.67.43,2.47.28.99.42,1.99.43,3.01.02,2.52.17,5.03.71,7.51.18.81.21,1.66.25,2.5.24,5.27.43,10.54.69,15.81.13,2.58.09,5.14-.16,7.72-.27,2.74-.33,5.5-.45,8.26-.04,1.03-.18,1.96-.75,2.89-1.29,2.13-1.43,4.52-1.19,6.95.02.18,0,.39.1.53.74,1.11.83,2.46,1.46,3.63,1.2,2.27,1.56,4.75,1.25,7.31-.01.12,0,.25-.05.35-.69,1.35-.77,2.88-1.29,4.27-.59,1.6-.51,2.05.7,3.14.66.6.92,1.56.58,2.42-.13.31-.41.58-.65.83-.37.39-.85.37-1.34.29-.11-.02-.23.04-.42.07-.68.97-.55,2.04-.02,3,.43.78.58,1.55.64,2.39.06.78.17,1.55.19,2.33.03.95.02,1.91-.02,2.87-.05,1.38-.16,2.75-.22,4.13-.04.78-.07,1.56-.52,2.24-.13.2-.24.43-.27.66-.13,1.2-.37,2.36-.97,3.43,0,1.44-.88,2.6-1.38,3.86-.67,1.7-1.45,3.38-2.38,4.99-1.35,2.32-2.63,4.66-4.16,6.88-1.61,2.32-3.35,4.51-5.16,6.67-1.73,2.07-3.7,3.93-5.75,5.66-1.44,1.21-2.98,2.39-4.74,3.28-.31-.24-.57-.48-.86-.66-.74-.46-1.47-.16-1.65.67-.05.23-.1.48-.09.71.05,1.22-.63,2.04-1.52,2.71-.85.64-1.67,1.38-2.82,1.5-.17.02-.36.09-.5.18-1.11.77-2.38.73-3.64.74-.73,0-1.4-.14-2.05-.54-1-.62-1.36-.59-2.22.21-1,.94-1.92,1.97-2.89,2.94-.59.59-1.21,1.16-1.82,1.73-.13.12-.28.23-.44.31-.59.28-1.21,0-1.4-.65-.1-.34-.12-.71-.26-1.04-.3-.75-1.11-1.02-1.76-.54-.47.35-.85.82-1.28,1.23-.44.42-1.02.42-1.43-.02-.16-.17-.27-.39-.43-.57-1.36-1.53-3.04-1.82-4.8-.75-.9.55-1.82.62-2.76.34-.8-.24-1.6-.56-2.29-1.01-2.32-1.51-4.43-3.28-6.13-5.48-.84-1.08-1.53-2.29-2.37-3.37-.73-.94-.83-2.1-1.3-3.13-.18-.38-.11-.96.03-1.39.43-1.36.8-2.75,1.53-4,1.2-2.07,2.46-4.09,3.92-5.98.51-.66,1.14-1.22,1.71-1.84.35-.38.78-.52,1.29-.52,1.2,0,2.4.02,3.56.4.57.18,1.16.35,1.75.4,1.31.12,2.62.19,3.82.86.34.19.82.13,1.23.23.69.17,1.38.36,2.07.55.06.02.11.07.16.08,1,.18,2.03.25,2.98.57.97.33,1.88.74,2.93.78.59.02,1.21.1,1.76.29,1.21.43,2.45.56,3.72.55,1.32,0,2.64,0,3.96-.08.65-.04,1.28-.25,1.92-.4.52-.12,1.05-.25,1.56-.4.57-.16,1.14-.34,1.7-.53.23-.08.43-.26.66-.28,1.58-.15,2.7-1.19,3.96-1.97,1.23-.77,2.35-1.65,3.23-2.81.18-.24.36-.48.58-.69,1.29-1.29,2.08-2.88,2.91-4.47.58-1.12.88-2.34,1.47-3.45.16-.31.24-.68.28-1.04.09-.78.34-1.5.62-2.24.25-.65.31-1.39.39-2.1.16-1.43.32-2.86.4-4.29.13-2.21.31-4.43-.1-6.63-.12-.65-.24-1.31-.21-1.96.1-2.14-.35-4.17-1.19-6.12-.58-1.36-.75-2.76-.64-4.22.07-.95.03-1.92.02-2.88-.05-5.76-.11-11.51-.17-17.27-.02-1.98-.02-3.95-.06-5.93-.02-1.44-.2-2.86-.55-4.27-.21-.87-.31-1.77-.33-2.67-.08-2.46-.18-4.91-.75-7.32-.2-.86-.2-1.78-.22-2.68-.06-2.28-.13-4.55-.71-6.78-.25-.97-.24-2.02-.28-3.03-.07-1.86-.16-3.71-.68-5.52-.21-.74-.23-1.54-.25-2.32-.04-1.74-.02-3.48-.03-5.22,0-1.27-.14-2.5-.62-3.7-.24-.59-.3-1.28-.36-1.93-.08-.96-.24-1.89-.56-2.81-.23-.67-.28-1.4-.4-2.11-.12-.71-.09-1.48-.38-2.11-1.06-2.39-1.23-4.99-1.9-7.47-.27-1.01-.22-2.15-.15-3.21.16-2.59-.17-5.15-.33-7.72-.05-.72-.13-1.43-.22-2.15-.13-1.09-.02-2.11.37-3.16.32-.87.33-1.88.39-2.83.06-.9.05-1.78.3-2.67.16-.56.07-1.19.08-1.78,0-.48-.04-1.03.38-1.34.79-.57.78-1.26.54-2.07-.05-.16,0-.35,0-.61Zm19.77,25.77q-.5.62,0,1.35v-1.35Zm.57,2.96c-.04-.15-.06-.33-.13-.48-.04-.08-.21-.19-.26-.16-.13.07-.3.18-.33.31-.04.15,0,.37.09.49.09.1.3.13.45.13.06,0,.12-.17.19-.29Zm-.88-6.74q-.27.65.06,1.29c-.03-.56-.05-.92-.06-1.29Z"/><path class="cls-1" d="m421.35,265.27c.47.42.91.8,1.43,1.26.32-.38.61-.67.81-1,.4-.65.97-.87,1.68-.76.57.08,1.2.02,1.67.44-.02.16,0,.35-.06.37-.87.39-1.31,1.12-1.81,1.89-.52.79-.85,1.54-.92,2.46-.05.59-.26,1.17-.34,1.76-.13.91.2,1.33,1.12,1.47.24.04.48.02.72.06.5.09.78.41.69.87-.14.81-.18,1.65-.93,2.26-.45.37-.72.94-1.12,1.48.13.19.24.52.38.54,1.01.13,1.46.98,2.12,1.56,1.16,1.01,1.37,2.47,1.87,3.79.08.21.05.48.03.71-.04.56-.33.89-.89.94-.6.05-1.2.03-1.8.06-.54.03-1.08.04-1.61.13-.55.1-.73.69-.32,1.09.38.37.77.84,1.24,1,1.1.36,1.93,1.17,2.98,1.6.04.02.05.1.11.21-.23.79-.77,1.41-1.4,1.96-.58.52-1.18,1.02-1.73,1.56-1.15,1.11-1.08,2.78.12,3.75.5.4.91.38,1.48.03.64-.39.75-1.05.96-1.66.05-.14.26-.35.36-.33.2.04.4.2.56.34.08.07.12.22.12.33-.06,1.36-.05,2.72-.92,3.92-1.01,1.4-1.87,2.9-2.03,4.68-.04.42-.06.84-.03,1.25.07.84.15,1.67.28,2.5.06.41.22.8.39,1.18.62,1.41.59,3.24-.14,4.94-.36.02-.77.06-1.18.05-.48-.02-.95-.13-1.43-.14-1.16-.02-1.9.63-2.11,1.78-.19,1.06-.33,2.13-.61,3.17-.17.62-.45,1.28-.87,1.74-.87.95-1.29,2.13-1.9,3.21-.15.26-.2.58-.37.81-1.2,1.63-2.42,3.24-3.62,4.87-1.24,1.68-2.48,3.36-3.66,5.08-.5.73-1.21,1.16-1.91,1.59-1.57.97-3.17,1.9-4.79,2.78-.99.54-2.09.87-3.04,1.46-1.01.64-2.2.88-3.19,1.57-.72.51-1.59.79-2.41,1.14-1.04.44-2.11.8-3.14,1.26-1.02.47-1.99,1.05-3,1.54-.69.34-1.39.69-2.13.88-1.23.31-2.2,1.15-3.44,1.44-.86.21-1.65.66-2.47,1.02-1.2.53-2.35,1.2-3.59,1.57-1.21.35-2.21,1.22-3.5,1.3-1.06.83-2.49.81-3.61,1.53-.29.18-.68.21-1.02.3-.34.09-.73.11-1.03.29-1.69,1.05-3.48.82-5.21.27-.88-.28-1.58-.18-2.15.36-1.18,1.12-2.34.95-3.6.22-.41-.23-.87-.41-1.33-.51-.6-.13-1.13-.31-1.62-.71-.26-.22-.64-.32-.98-.4-1.07-.27-1.82-1.07-2.84-1.52.49-1.32,1.77-1.69,2.46-2.59,1.51,0,2.94-.02,4.38,0,1.09.02,2.05.26,2.94,1.08,1.47,1.36,2.22,1.25,3.6-.28.92-1.02,1.75-2.12,2.65-3.16.55-.63,1.19-1.18,1.74-1.81.44-.51.98-.63,1.61-.61,1.62.06,3.24.09,4.85.17.92.04,1.7-.12,2.51-.68,1.32-.91,2.86-1.49,4.2-2.38,2.14-1.42,4.44-2.56,6.63-3.89,1.83-1.11,3.65-2.25,5.44-3.42,3.75-2.46,7.35-5.13,10.53-8.31.38-.38.74-.78,1.1-1.18,1.03-1.15,1.57-2.43,1.59-4.05.09-5.1.33-10.19.49-15.28.09-2.88.07-5.75-.44-8.61-.2-1.11-.13-2.27-.15-3.41-.02-1.14-.05-2.28-.56-3.34-.1-.21-.18-.46-.18-.69,0-1.58-.39-3.06-1.06-4.48-.71-1.51-1.17-3.13-2.12-4.53-.92-1.35-2.12-2.32-3.59-3.13-1.46-.8-2.92-.97-4.48-1.02-.96-.03-1.92-.05-2.88-.08-1.39-.04-2.72.14-4.07.57-1.54.49-3.14.75-4.78.68-3.54-.14-7.07-.24-10.61-.35-.6-.02-1.2-.01-1.79.06-.63.08-.94.41-1.04,1.06-.06.35-.06.72-.07,1.08-.21,6.47-.42,12.95-.63,19.42-.05,1.44,0,2.87.32,4.29.17.75.12,1.55.1,2.33-.12,4.5-.25,8.99-.39,13.49-.04,1.14-.02,2.27.25,3.4.12.52.13,1.07.14,1.6.02,1.08-.34,2-1.24,2.66-.96.71-1.91,1.42-2.89,2.11-.53.38-1.09.73-1.65,1.07-1.33.81-2.25,1.94-2.69,3.44-.24.82-.73,1.39-1.6,1.5-2.66.35-5.23,1.29-7.98,1.17-1.53-.07-2.56-.57-3.12-1.91-.11-.26-.16-.6-.12-.88.41-2.44.17-4.91.26-7.36.09-2.58.11-5.16.09-7.73,0-1.07-.12-2.16-.33-3.21-.24-1.19-.38-2.36-.35-3.57.05-2.16,0-4.31-.57-6.43-.2-.74-.2-1.54-.2-2.32,0-2.4-.06-4.79-.57-7.16-.19-.87-.15-1.79-.16-2.69-.02-2.04-.07-4.07-.51-6.08-.2-.93-.23-1.91-.22-2.86.03-3.72.1-7.44.15-11.15,0-.24.03-.48.03-.72-.02-1.21.46-2.17,1.37-2.99,1.39-1.23,2.76-2.43,4.39-3.38,1.85-1.07,3.64-2.26,5.69-2.95.97-.88,2.36-.83,3.41-1.54.27-.19.69-.15,1.04-.23.7-.15,1.42-.25,2.1-.47.96-.31,1.9-.32,2.82.05,1.19.47,2.43.6,3.69.73.82.09,1.63.35,2.44.56.35.09.67.26,1.02.35.7.18,1.32.37,1.85.98.62.71,1.64.45,2.07-.39.22-.43.38-.88.58-1.32.26-.56.7-.8,1.31-.71.24.03.48.07.7.14,1.97.61,4,.76,6.04.84,2.1.09,4.2.16,6.29.24.48.02.96.04,1.43.09.6.07.92.38,1.08,1.01.28,1.12,1.08,1.53,1.95.86,1.07-.82,2.21-.85,3.4-.8,4.2.15,8.39-.06,12.59-.29,2.51-.14,5.04-.04,7.55.02,1.71.04,1.93.54,1.08,2.13-.06.1-.09.22-.21.54Zm-2.24,48.96c1.44-.42,2.54-1.31,3.59-2.26.38-.35.65-.85.89-1.33.41-.82.09-1.76-.65-2.16-.64-.35-1.53-.13-2.02.59-.73,1.08-1.43,2.17-2.05,3.31-.32.58-.33,1.25.24,1.85Zm-54.62-25.67c1.14-.37,1.84-1.07,1.87-2.31.02-.71.04-1.43-.01-2.13-.02-.28-.18-.57-.35-.81-.27-.38-.7-.45-1.13-.38-.4.07-.58.39-.65.76-.15.82-.23,1.66-.46,2.46-.28.98-.06,1.75.72,2.41Zm-.78,7.37c0,1.08.23,1.47,1.01,1.75.46.16.91,0,1.01-.44.15-.7.26-1.41.31-2.12.04-.47-.28-.78-.74-.86-.99-.18-1.45.17-1.55,1.19-.02.18-.02.36-.03.47Zm60.62-5.81c-.22-.14-.48-.37-.78-.47-.36-.12-.71,0-.87.4-.04.1-.05.24,0,.34.16.39.52.49.88.43.26-.05.49-.24.73-.39.03-.02.02-.11.04-.31Zm-9.6-5.45c-.35-.09-.6-.19-.85-.19-.24,0-.39.33-.27.51.19.29.47.3.74.15.12-.06.19-.23.37-.47Zm-53.52,2.05c-.23.26-.4.44-.56.62.17.12.33.31.52.36.32.08.64-.2.55-.45-.07-.17-.27-.3-.5-.53Zm56.88,17.93l.02.11.09-.06-.11-.04Z"/><path class="cls-1" d="m450.15,133.94c-1.42-1.23-2.41-2.54-2.89-4.2-.1-.34-.18-.72-.39-1-.7-.93-.71-2-.74-3.09-.16-6.47-.31-12.95-.52-19.42-.21-6.77-.49-13.54-.7-20.32-.1-3.06-.15-6.13-.68-9.14-.38-2.12.08-4.13.92-5.95.95-2.05,2.39-3.85,4.38-5.1.35-.22.71-.45,1.04-.71,1.23-.95,2.58-1.71,3.9-2.5.25-.15.56-.21.84-.3.74-.24,1.48-.48,2.22-.71.4-.12.8-.28,1.21-.33,1.29-.16,2.37.67,2.55,1.95.06.41.02.85.1,1.25.14.7.26,1.42.53,2.07.38.9.59,1.82.61,2.79.02,1.63.25,3.23.73,4.79.34,1.1.39,2.24.4,3.38.01,1.02-.02,2.04.07,3.06.09,1.13.62,1.64,1.74,1.63.64,0,1.33-.11,1.92-.36.96-.41,1.92-.64,2.95-.71.41-.03.87-.06,1.23-.24,1.01-.53,2.08-.51,3.16-.51,3.3,0,6.6,0,9.9,0,.54,0,1.08.01,1.62-.05.86-.09,1.26-.51,1.36-1.4.06-.53.05-1.08.05-1.62,0-3.12.05-6.24-.03-9.36-.03-1.37.45-2.42,1.31-3.41,2.55-2.93,5.08-5.88,7.82-8.65,1.48-1.5,3.1-2.83,4.9-3.89.86-.5,1.89-.74,2.87-1.01.54-.15,1.06.07,1.41.58.87,1.25,1.36,2.56,1.42,4.15.32,8.52.15,17.03-.09,25.54-.06,2.16.1,4.32.11,6.47.01,6.3,0,12.59,0,18.89,0,.84.02,1.68.02,2.52,0,.55.08,1.08.43,1.53.51.65.62,1.42.62,2.21,0,3.24.02,6.48-.03,9.72-.01.89-.13,1.81-.35,2.67-.48,1.88-.67,3.78-.7,5.7-.02,1.1-.13,2.14-.86,3.05-.25.31-.31.77-.47,1.15-.15.39-.31.77-.48,1.15-.07.16-.25.3-.27.46-.26,1.6-.91,3.08-1.35,4.61-.43,1.49-.15,3.09.07,4.64.11.76.04,1.55,0,2.32-.03.66-.17,1.31-.2,1.97-.05,1.21-.33,2.31-.78,3.46-.58,1.48-.93,3.06-1.48,4.58-.31.86-.15,1.9-.21,2.85-.04.65.12,1.33-.37,2.05-.26,0-.61,0-.95,0-1.01.02-1.6.45-1.79,1.41-.16.82-.22,1.66-.29,2.5-.06.66-.03,1.32-.11,1.97-.08.59-.15,1.21-.41,1.73-.52,1.05-.71,2.16-.74,3.3-.02.78-.09,1.57-.49,2.26-.5.86-.64,1.8-.69,2.76-.04.84-.16,1.67-.6,2.42-.44.75-.5,1.59-.56,2.43-.05.72-.12,1.44-.52,2.07-.46.73-.59,1.55-.68,2.4-.07.65-.17,1.33-.46,1.9-.42.83-.63,1.66-.72,2.57-.06.58-.29,1.15-.46,1.71-.07.23-.29.42-.32.64-.26,1.96-1.16,3.74-1.55,5.67-.06.29.02.67-.14.88-1.06,1.45-.86,3.35-1.78,4.84-.06.1-.14.22-.15.33-.04,1.56-1.1,2.75-1.51,4.17-.33,1.16-1.04,1.87-2.33,1.85-.18,0-.36.04-.53.08-.41.12-.68.62-.5,1,.18.38.44.71.64,1.07.11.2.14.45.22.72-.33.42-.77.79-.96,1.26-.19.48-.14,1.06-.2,1.59-.15,1.34-.73,2.55-1.39,3.67-.84,1.45-2.02,2.66-3.48,3.57-.9.56-1.59,1.46-2.77,1.83-.12-.23-.36-.48-.34-.71.05-.59.11-1.22.36-1.73,1.04-2.06,1.64-4.22,1.78-6.52.06-1.02.13-2.04.16-3.05.03-.91.17-1.79.58-2.61.08-.16.19-.33.21-.5.27-2.2,1.12-4.26,1.59-6.42.11-.52.19-1.08.46-1.52.42-.69.71-1.4.74-2.19.04-1.01.8-1.74,1-2.68.2-.93.2-1.92.84-2.72.07-.09.14-.21.16-.32.28-1.72,1.05-3.29,1.48-4.96.06-.23,0-.51.12-.7.86-1.54.99-3.31,1.63-4.91.34-.85.55-1.7.66-2.6.09-.7.21-1.44.5-2.07.44-.95.64-1.93.66-2.96.04-1.93.26-3.8.79-5.68.34-1.19.34-2.49.37-3.75.05-1.99.2-3.94.73-5.87.25-.91.31-1.89.37-2.85.09-1.44.05-2.88.15-4.31.11-1.61.3-3.22.46-4.83.16-1.55.43-3.09.47-4.65.08-3.3.04-6.6.07-9.89.01-1.38.07-2.76.09-4.14.03-1.69.17-3.35.83-4.93.18-.43.21-.93.28-1.41.12-.81,0-1.54-.69-2.11-.32-.26-.56-.63-.86-.91-.67-.62-.82-1.45-.35-2.12.89-1.29.88-2.71.86-4.15-.03-3.6-.08-7.2-.12-10.79-.02-1.51-.24-2.98-.6-4.44-.27-1.1-.37-2.24-.44-3.38-.09-1.5-.15-2.99-.86-4.37-.19-.36-.22-.81-.32-1.21-.27-1.1-.42-1.24-1.6-1.27-.6-.02-1.2.02-1.8.04-.36.02-.72.11-1.07.09-4.91-.27-9.82.43-14.73.17-1.09-.06-2.14.08-3.17.51-.49.21-1.04.26-1.57.38-.53.12-.84.44-.91.98-.05.42-.08.84-.08,1.26,0,2.7,0,5.4,0,8.1,0,.97.11,1.92.49,2.82.4.95.6,1.95.6,2.98,0,4.02,0,8.04-.05,12.05-.02,1.31-.57,1.96-1.85,2.32-.65.18-1.19.45-1.74.86-.76.56-1.64.97-2.49,1.38-.31.15-.7.15-1.05.19-.6.05-1.2.09-1.8.11-.82.02-1.2.46-1.6,1.17-.71,1.24-1.04,2.66-1.92,3.81-.14.18-.23.43-.25.66-.14,1.12-.9,1.76-1.86,2.49Z"/><path class="cls-1" d="m622.48,173.44c.98-.38,1.64-.87,2.15-1.57.07-.1.34-.16.48-.11.14.05.33.25.32.38-.06,1.19-.08,2.39-.29,3.56-.08.47-.58.88-.91,1.31-.51.66-1.03,1.32-1.18,2.18-.03.18-.28.33-.55.64-.16-.5-.3-.81-.34-1.14-.07-.53-.02-1.09-.12-1.61-.05-.24-.31-.5-.54-.63-.25-.13-.69.22-.78.59-.26,1.1-.07,2.14.42,3.14.13.26.37.47.53.72.25.37.34.82.12,1.2-.63,1.05-.94,2.19-1.18,3.37-.07.34-.34.63-.48.96-.1.21-.21.45-.2.68,0,.21.12.45.27.6.09.09.36.1.5.04.33-.14.62-.36.93-.53.3-.17.62-.31.98-.5.17.26.39.46.4.65.03,1.01.17,2.06-.05,3.03-.27,1.14-.87,2.2-1.35,3.35-.38-.02-.73-.08-1.08-.06-.89.04-1.43.72-1.2,1.59.1.39.34.75.55,1.11.14.25.32.48.49.73-.17.18-.28.41-.41.42-.9.06-1.32.53-1.64,1.37-.45,1.17-1.06,2.27-1.14,3.56-.02.26-.25.53-.42.77-.79,1.11-.83,1.79-.12,2.93.38.61.77,1.22,1.13,1.84.12.2.16.43.26.7-.53.6-1.04,1.17-1.68,1.62-1.44,1.01-1.75,2.09-1.14,3.69.17.44.39.9.39,1.35-.01.99-.27,1.91-1.33,2.34-.62.25-.88.78-1.01,1.39-.22,1.12-.42,2.24-.66,3.35-.2.93-1.37,1.98-2.25,2.05-.82.07-1.26-.3-1.26-1.12,0-1.08.1-2.15.63-3.14.25-.47.44-.99.52-1.51.15-1,.15-2,.95-2.82.27-.28.24-.9.25-1.37.05-2.76.08-5.52.08-8.28,0-1.45.19-2.84.63-4.24.33-1.07.44-2.23.48-3.36.07-1.86.24-3.68.82-5.48.36-1.11.35-2.37.4-3.56.06-1.39.14-2.75.63-4.07.12-.33.21-.7.23-1.05.12-2.69.21-5.39.3-8.09,0-.3-.04-.6-.12-.89-.76-2.72-.64-5.44-.05-8.17.25-1.15.24-2.21-.47-3.26-.34-.51-.4-1.24-.48-1.88-.1-.77-.05-1.56-.14-2.33-.1-.77-.24-1.54-.47-2.28-.36-1.1-.58-2.2-.59-3.35-.02-2.22-.21-4.41-.8-6.58-.33-1.19-.31-2.49-.35-3.75-.09-3-.07-6-.2-8.99-.08-1.97-.36-3.94-.52-5.91-.17-2.03-.36-4.06-.43-6.1-.11-3-.05-6-.2-8.99-.19-3.77-.54-7.53-.77-11.3-.12-1.97-.22-3.95-.23-5.93-.04-6.12-.04-12.24-.03-18.35,0-.77.08-1.55.19-2.32.18-1.33-.15-2.48-1.08-3.47-.48-.51-1.12-.92-1.28-1.7.89-.91,1.76-1.8,2.63-2.69,2.57-2.67,5.11-5.36,7.71-8,1.21-1.23,2.51-2.39,3.82-3.52,1.1-.95,3.51-2.09,4.78-2.38.73-.16,1.36.1,1.72.69.83,1.39,2.14,1.86,3.61,2.01,1.61.16,3.23.28,4.84.34,1.57.06,3.1.21,4.63.59.81.2,1.65.28,2.49.34,1.37.11,2.75.2,4.13.21.77,0,1.57-.08,2.3-.28,2.16-.59,4.35-.84,6.58-.85,2.82-.01,5.63-.21,8.4-.79,1.28-.27,2.62-.29,3.93-.36,1.62-.09,3.21-.25,4.78-.77.84-.28,1.76-.33,2.65-.4,1.32-.11,2.6-.3,3.87-.74.83-.29,1.76-.36,2.65-.44.91-.08,1.78-.22,2.58-.69.31-.18.65-.38.99-.4,1.44-.09,2.47-1.21,3.83-1.47.73-.65,1.64-.96,2.48-1.4,1.05-.55,2.05-1.21,3.07-1.82.1-.06.22-.09.33-.15,2.14-1.06,4.27-2.11,6.41-3.17.21-.11.43-.22.66-.27,1.23-.25,2.47-.48,3.71-.7.36-.06.75-.09.97.26.25.39.21.8-.06,1.18-1.16,1.68-2.41,3.28-3.95,4.64-1.17,1.03-2.31,2.08-3.49,3.1-.68.58-1.37,1.15-2.1,1.67-.96.7-1.95,1.37-2.94,2.04-.84.56-1.66,1.17-2.56,1.62-1.33.67-2.56,1.54-3.89,2.17-1.12.53-2.07,1.46-3.37,1.6-.99.92-2.43.95-3.47,1.78-.27.21-.65.29-.98.43-.49.22-.97.45-1.46.66-.49.2-.99.39-1.5.57-.34.12-.77.09-1.02.3-.73.61-1.57.84-2.47.99-1.47,1.11-3.48.84-4.96,1.94-1.59.27-3.08.87-4.59,1.41-.27.1-.59.06-.89.07-.97.04-1.84.38-2.75.73-2.12.81-4.28,1.56-6.6,1.6-1.86.03-3.72.13-5.57.24-.84.05-1.69.1-2.5.28-2.78.6-5.58.69-8.41.71-2.88.02-5.76.09-8.63.2-.83.03-1.66.22-2.47.42-.83.2-1.32.75-1.43,1.65-.16,1.37-.43,2.72-.54,4.09-.1,1.21.08,2.39.95,3.37.48.54.44,1.19.32,1.87-.27,1.45.25,2.15,1.67,2.31.24.03.48.03.72.03,6.42.12,12.83.29,19.25,0,1.07-.05,2.15-.2,3.2-.41,1.42-.29,2.85-.41,4.29-.44,1.62-.03,3.23-.03,4.71-.89.49-.28,1.16-.28,1.75-.34.96-.1,1.9-.24,2.78-.67.42-.21.92-.27,1.37-.43.51-.18,1-.39,1.5-.59.6-.25,1.2-.52,1.8-.78.22-.09.49-.13.66-.27,1-.84,2.19-.89,3.4-.84.82.03,1.53-.12,2.05-.85.27-.38.67-.68,1.03-.98.27-.22.57-.43.89-.57.62-.27,1.09,0,1.2.63.1.61.04,1.19-.3,1.73-1.24,1.92-2.66,3.61-4.63,4.9-1.65,1.09-3.44,1.91-5.08,2.99-1.43.28-2.47,1.47-3.93,1.7-1.1.84-2.56.98-3.65,1.86-.14.11-.3.21-.47.26-1.92.6-3.48,1.82-5.07,2.97-.5.36-.97.65-1.59.74-.47.07-.96.17-1.38.38-1.05.53-2.15.75-3.3.72-2-.05-3.75.69-5.37,1.76-.57.38-1.17.57-1.82.7-3.3.66-6.62,1.2-10,1.04-1.55-.08-2.79.51-3.97,1.38-.76.57-1.22,1.31-1.22,2.29,0,.48-.03.96-.02,1.44,0,4.56.01,9.11.04,13.67,0,1.33-.02,2.62-.8,3.8-.43.64-.3,1.38,0,2.07.87,2.03.85,4.04-.06,6.06-.52,1.15-.45,2.37-.1,3.52.3,1.02.4,1.95.04,2.97-.21.61-.22,1.3-.23,1.95-.02,3.12-.02,6.24-.02,9.36,0,.91.07,1.78.58,2.59.38.61.32,1.27-.11,1.86-.62.84-.69,1.76-.51,2.74.21,1.12.42,2.24.62,3.36.36,2.08.34,4.18.26,6.28-.04.96-.57,1.69-1.16,2.38-.55.65-1.13.72-1.91.29-.1-.06-.18-.16-.28-.22-.71-.4-1.42-.23-1.83.45-.5.81-.36,1.99.35,2.63.26.24.59.4.91.61Zm-.48-19.84c-.02-.35-.04-.89-.07-1.43-.06-1.22-.03-2.41,1.18-3.18.12-.08.16-.46.08-.63-.09-.18-.35-.34-.56-.37-.56-.09-1.04.13-1.46.52-1,.93-1.68,2.01-1.65,3.44.02.72.03,1.44-.02,2.15-.08,1.26.51,2.16,1.43,2.92.45.37,1.01.2,1.04-.38.05-.95.01-1.91.01-3.05Zm1.18,9.11c-.04-.22-.04-.66-.2-1.03-.09-.22-.41-.44-.66-.48-.58-.1-1.08.23-1.21.79-.1.46-.15.94-.14,1.4.02.72.44,1.05,1.16,1.03.62-.02.94-.33,1.01-1,.02-.18.02-.35.03-.72Z"/><path class="cls-1" d="m601.57,115.79c-.03-.37-.08-.83-.13-1.35.53-.45.92-1.09,1.82-1.2.09.36.26.69.25,1.01-.04.95.24,1.77.84,2.49.88,1.06.65,2.15-.04,3.14-.45.65-.81,1.31-1.06,2.05-.11.33-.38.6-.56.91-.25.41-.55.79-.71,1.23-.25.68-.53,1.33-1.03,1.87-.12.13-.25.29-.28.46-.26,1.57-1.48,2.4-2.54,3.35-.31.28-.68.49-.99.78-.74.69-1.56,1.3-2.05,2.24-.18.35-.52.64-.84.91-3.12,2.69-6.34,5.25-9.76,7.54-1.24.83-2.45,1.74-3.77,2.4-1.53.76-3.1,1.5-4.72,2.07-.33.12-.7.13-1.06.17-.83.11-1.65.22-2.48.33-.12.02-.23.08-.35.08-1.91-.05-3.81-.09-5.72-.17-.6-.03-1.21-.14-1.64-.62-.84-.94-1.84-1.02-2.95-.63-.11.04-.23.04-.3.05-1.72-.43-3.05-1.42-4.29-2.57-.22-.2-.46-.39-.71-.54-1.72-1.04-2.75-2.49-3.26-4.48-.4-1.54-.66-3.16-1.44-4.6-.19-.35-.25-.8-.26-1.21-.01-.78.03-1.56.1-2.33.07-.85,0-1.66-.21-2.49-.21-.8-.32-1.65-.34-2.47-.03-1.03-.06-2.03-.47-3-.14-.32-.22-.7-.21-1.05.06-2.22.13-4.45.89-6.56.37-1.05.53-2.05.23-3.16-.18-.67-.15-1.43-.11-2.14.14-2.1.17-4.18-.18-6.27-.17-1.05-.11-2.16-.02-3.23.26-3.11.59-6.21.9-9.31.1-1.02.35-1.98.87-2.9.37-.66.58-1.44.76-2.19.18-.77.38-1.5.95-2.09.2-.21.4-.48.46-.76.28-1.27,1.44-2.07,1.75-3.31,1.48-1.64,2.6-3.58,4.34-5,.19-.15.38-.3.54-.47,1.61-1.74,3.7-2.81,5.64-4.1,1.39-.31,2.57-1.27,4.05-1.34.18,0,.37-.02.53-.09,1.78-.81,3.64-.57,5.49-.45,2.81.18,5.62.44,8.43.55,1.67.06,3.36-.01,5.02-.17,1.75-.17,3.47-.1,5.21.05.46.04.91.22,1.28.31.47.57.4,1.12.34,1.64-.47,3.62-.96,7.25-1.45,10.87-.08.59-.19,1.18-.33,1.77-.11.47-.44.66-.94.63-.12,0-.24-.02-.36-.04-3.9-.8-7.86-.88-11.81-1.02-.83-.03-1.66,0-2.42-.52-.31-.21-.8-.2-1.22-.22-.96-.05-1.92-.1-2.88-.07-1,.03-1.9-.12-2.61-.9-.98.28-1.94.43-2.79.83-1.15.54-1.99,1.52-2.77,2.51-.2.25-.22.68-.27,1.03-.22,1.9-.42,3.81-.63,5.72-.13,1.2-.25,2.37.55,3.45.46.62.25,1.4.12,2.1-.25,1.36-.42,2.72-.4,4.1.02.91.11,1.78.43,2.64.22.6.26,1.28.36,1.93.12.73.49,1.07,1.22.98.4-.05.82-.19,1.17-.39,1.09-.62,2.14-1.3,3.22-1.95.31-.18.61-.43.95-.5.99-.21,1.81-.6,2.22-1.61.08-.19.34-.33.54-.44.21-.12.45-.16.67-.26,1.32-.57,2.51-1.33,3.58-2.32.92-.85,1.96-1.57,3.01-2.24,1.31-.84,2.67-1.58,4.02-2.35.25-.14.54-.22.92-.37.07.39.19.67.16.94-.18,2.03-.38,4.06-.58,6.09-.07.7-.46,1.1-1.07,1.51-1.79,1.21-3.77,2.05-5.6,3.17-2.54,1.56-5.04,3.18-7.62,4.68-2.07,1.21-3.96,2.65-5.83,4.15-.62.5-.93,1.07-.99,1.82-.1,1.13-.17,2.27-.24,3.41-.01.18-.04.37.02.54.52,1.59.63,3.28,1.25,4.84.17.44.34.89.46,1.35.37,1.51,1.42,2.6,2.35,3.76.19.24.63.36.97.39,2.51.21,5.02.38,7.53.56.06,0,.12,0,.18,0,2.28-.65,4.62-.97,6.8-2.07,3.54-1.79,6.34-4.42,9.08-7.18,1.55-1.57,3.15-3.09,4.81-4.7Z"/><path class="cls-1" d="m371.58,98.1c-.73-.83-.84-1.82-1.02-2.83-.34-1.81-1.08-3.51-1.45-5.34-.24-1.18-1.07-2.24-1.6-3.37-.53-1.15-.56-2.39-.05-3.5.65-1.4,1.21-2.88,2.2-4.09,1.85-2.28,3.77-4.48,6.11-6.31,1.47-1.15,3.04-2.12,4.64-3.04,1.02-.59,2.17-1,3.31-1.32,1.1-.31,2.27-.42,3.24.44.49.43,1.06.52,1.67.5.9-.03,1.8-.02,2.7-.08,3.42-.24,6.83-.15,10.25-.08,3.96.09,7.91.15,11.87.21,1.32.02,2.61.05,3.84.72.55.3,1.27.34,1.92.38,1.02.06,2.04.02,3.06,0,.36,0,.74-.02,1.06-.15,1.26-.54,2.5-1.11,3.73-1.71.91-.45,1.78-.97,2.67-1.44,2.06-1.08,4.06-2.27,6.05-3.47,1.58-.95,3.29-1.69,5.17-1.88,1-.1,1.51.28,1.5,1.26,0,.29,0,.65-.15.87-1.07,1.54-1.69,3.4-3.56,4.36-1.25.65-2.31,1.68-3.46,2.53-.67.49-1.38.94-2.06,1.44-2.02,1.48-4.05,2.94-6.03,4.46-.54.41-1.09.8-1.75.86-1.02.1-1.8.63-2.54,1.25-.56.46-1.13.84-1.81,1.13-.86.37-1.65.95-2.45,1.44-1.62,1-3.33,1.85-5.01,2.73-.51.27-1.14.36-1.73.39-1.8.09-3.56.39-5.34.72-1.58.3-3.21.41-4.82.43-4.2.06-8.39.03-12.59.05-.54,0-1.08,0-1.62.07-.88.1-1.42.61-1.57,1.48-.08.47-.1.95-.1,1.43-.01,1.68-.04,3.36,0,5.04.03.89.2,1.78.32,2.67.22,1.66.54,3.32.62,4.99.07,1.46.44,2.73,1.5,3.73.94.88,1.47,2.02,2.13,3.08.96,1.54,2.12,2.86,3.59,3.94.49.36.99.65,1.59.79.35.08.73.16,1.01.36,1.14.8,2.5.78,3.77,1.07.22.05.48.04.71-.02,1.3-.32,2.62-.27,3.94-.29.59,0,1.22-.04,1.77-.23.6-.2,1.11-.28,1.72-.04.28.11.69-.01,1.02-.1.28-.08.53-.28.81-.39.54-.21.98-.16,1.47.27.87.76,1.55.69,2.3-.16.5-.58,1.17-1.04,1.34-1.88.11-.52.52-.74,1-.92,1.06-.4,2.12-.82,3.12-1.34.45-.24.79-.71,1.15-1.11.53-.58,1.14-.95,1.9-1.24,1.09-.42,2.08-1.14,3.05-1.82,1.87-1.31,3.42-2.98,5.03-4.58,2.33-2.32,4.64-4.65,6.96-6.98.55-.55,1.15-1.01,1.97-1.51.11.2.22.34.27.5.21.66.18,1.33-.13,1.93-1.31,2.5-2.91,4.78-5.06,6.64-2.66,2.31-5.32,4.62-7.95,6.96-1.29,1.15-2.49,2.39-3.45,3.87-.41.64-1,1.19-1.58,1.71-3.29,2.95-6.58,5.91-9.9,8.82-1.11.98-2.27,1.93-3.78,2.28-1.07.87-2.5,1.01-3.58,1.93-.75.64-1.74,1.02-2.81,1.08-1.92.11-3.82.36-5.54,1.32-2.94.44-5.73,1.81-8.81,1.39-.54-.07-1.06-.13-1.51-.49-.18-.15-.39-.35-.6-.37-1.31-.14-2.19-1.21-3.43-1.5-.51-.12-.8-.51-.87-1.03-.02-.12-.05-.24-.05-.36,0-1.26-.61-1.93-1.85-2.27-.9-.24-1.73-.8-2.55-1.27-.58-.33-1.13-.84-1.14-1.53-.03-1.58-.88-2.55-2.06-3.16-.41-1.06-.77-2.01-1.13-2.95-.08-.22-.19-.45-.2-.69-.07-.98-.32-1.83-1.07-2.57-.33-.32-.38-.99-.42-1.52-.05-.77,0-1.56.05-2.33.14-1.92.22-3.83.06-5.75-.13-1.57-.05-3.12,1-4.49Z"/><path class="cls-1" d="m511.35,74.54c1.19-.98,2.37-1.89,3.47-2.89,2.13-1.93,4.37-3.71,6.65-5.44,1.91-1.44,3.95-2.67,6.05-3.8.84-.45,1.74-.78,2.62-1.15.22-.09.46-.14.7-.15,1.5-.03,2.99-.05,4.49-.05.3,0,.66,0,.87.15,1.31.93,2.96.91,4.34,1.65.6.32,1.38.43,2.08.43,1.68,0,3.35-.15,5.03-.2.77-.02,1.57-.03,2.31.14,1.15.26,1.88,1.71,1.51,2.84-.28.85-.55,1.72-1.41,2.22-.14.08-.23.27-.34.42-1.16,1.48-2.74,2.28-4.52,2.67-2.19.49-3.7,1.83-4.95,3.59-.59.83-1.17,1.67-1.25,2.74,0,.06-.02.13-.05.17-1.03,1.18-.94,2.67-1.17,4.07-.08.47-.2.94-.35,1.39-.51,1.51-.53,3.07-.44,4.63.03.58.24,1.17.48,1.7.34.73.49,1.46.49,2.26,0,6.77,0,13.55-.02,20.32,0,.53-.01,1.11-.22,1.58-.34.78-.19,1.48-.04,2.27.3,1.5,1.25,2.7,1.76,4.1.24.66.93.91,1.62.95.42.03.84-.02,1.26.02.81.09,1.23.42,1.36,1.2.29,1.82.28,3.59-.97,5.13-.15.18-.3.41-.5.5-1.04.44-2.09.85-3.13,1.26-.44.17-.88.35-1.33.5-1.63.57-3.01,1.72-4.75,2.05-.28.05-.52.29-.79.41-.37.18-.74.42-1.14.49-.73.12-1.35.4-1.99.76-.5.28-1.11.44-1.69.5-.9.1-1.76.29-2.62.57-.9.29-1.87.47-2.81.51-1.79.08-3.59.05-5.39.03-.84,0-1.66-.12-2.39-.64-.28-.2-.65-.32-1-.38-.78-.15-1.09-.62-1.14-1.38-.09-1.38.2-2.5,1.34-3.51,1.8-1.59,3.67-3.06,5.78-4.2,1.07-.58,1.41-1.33,1.38-2.45-.04-1.5,0-3-.01-4.49-.07-6.59-.15-13.18-.24-19.78-.05-3.84-.29-7.66-.63-11.49-.22-2.51-.27-5.03-.41-7.54-.03-.54-.06-1.08-.16-1.61-.13-.73-.6-1.17-1.33-1.27-.65-.09-1.31-.08-1.97-.15-.95-.1-1.91-.19-2.85-.36-.65-.12-1.27-.39-1.61-1.32Z"/><path class="cls-1" d="m748.82,541.88c-.03.81-.49,1.15-.9,1.47-.7.54-.9,1.24-.86,2.06.07,1.37.03,2.76.63,4.06.12.27.21.58.19.87-.02.27-.12.6-.3.79-.28.3-.64.55-1,.75-1.21.65-2.41,1.29-3.65,1.87-.41.19-.92.24-1.39.25-.58,0-.89-.28-1.04-.81-.31-1.12-.2-2.08.77-2.92,1.05-.9,1.77-2.05,2.17-3.43.36-1.25.99-2.42,1.47-3.63.2-.5.31-1.03.49-1.54.17-.48.51-.69.98-.55.8.23,1.58.5,2.45.77Z"/><path class="cls-1" d="m469.74,236.39c.06-.14.17-.54.4-.87.82-1.17,1.59-2.35,1.91-3.78.19-.89.7-1.16,1.58-.98.46.1.8.46.69.89-.28,1.12-.27,2.23-.06,3.37.13.69-.09,1.26-.8,1.62-.79.4-1.45,1.04-2.39,1.17-.94.13-1.32-.17-1.31-1.43Z"/><path class="cls-1" d="m606.71,231.1c.03-.53.06-.83.07-1.13.07-1.38,1.07-2.05,2.08-2.69.14-.09.34-.09.52-.1.45-.04.86.28.86.71,0,.41-.01.85-.13,1.24-.37,1.21-1.11,2.23-1.9,3.2-.14.17-.4.28-.62.33-.32.07-.64-.06-.72-.38-.12-.46-.13-.94-.16-1.18Z"/><path class="cls-1" d="m230.25,384.92c.07.09.17.17.19.27.06.34.1.69-.29.86-.07.03-.25-.04-.29-.11-.24-.41-.16-.61.39-1.02Z"/></svg>