<svg xmlns="http://www.w3.org/2000/svg" viewBox="0 0 300 194.2" enable-background="new 0 0 300 194.2"><g fill="#fff"><path d="m132.9 42.8c-6.8-12.8-24.9-16.6-40.6-8.3-7.9 4.1-13.7 10.5-16.6 17.5-.1-7.3-3.5-11.8-3.5-11.8-6.2-10.8-33.2-20.1-33.2-20.1-11.7-5.3-10.4-11.2-10.4-11.2 0-7.1 10.7-6.9 10.7-6.9 6.8 0 9.5.7 19.4 8 9.9 7.3 10 25.2 10 25.2v-35.2c-.5 7.7-10.6 3.8-10.6 3.8-8.4-2.6-18.8-3.1-18.8-3.1-20.8.2-30.5 10.6-30.5 10.6-9.6 9.7-2.7 21.8-2.7 21.8 5.1 8.9 30.9 18.4 30.9 18.4 14.2 5.3 13.3 13.9 13.3 13.9-.2 11.9-14.8 11.9-14.8 11.9-12.6-.4-13.7-10.4-13.7-10.4-.5-6.6 5.5-10 5.5-10-2.9-7.8-10.8-8.9-10.8-8.9-7.9-1.3-12.8 3.5-12.8 3.5-8 7.5-.5 16.6-.5 16.6 8.8 8.8 22.7 10.2 29.2 10.3-12.5 2.9-18.5 9.2-18.5 9.2-9.7 9.7-2.7 21.7-2.7 21.7 5.1 8.9 30.9 18.4 30.9 18.4 14.2 5.3 13.3 13.9 13.3 13.9-.2 11.9-14.8 11.9-14.8 11.9-12.6-.4-13.7-10.4-13.7-10.4-.5-6.6 5.5-10 5.5-10-2.9-7.7-10.8-8.8-10.8-8.8-7.9-1.3-12.8 3.5-12.8 3.5-7.6 7.2-.5 16.6-.5 16.6 11.9 11.9 32.9 10.2 32.9 10.2 18.1-.8 27.6-5.3 32.6-9.4l.1 49h6l-.3-116.8c8.2 8.8 23.6 10.6 37 3.5 15.7-8.2 23-25.3 16.3-38.1m-59.4 19.9v15c-1.6 5.8-10.4 2.5-10.4 2.5-5.7-1.7-12.2-2.5-15.9-2.9 20.1-3.2 25.2-11.8 26.3-14.6m-29.5 33.7c-11.7-5.3-10.4-11.1-10.4-11.1 0-7.1 10.8-6.9 10.8-6.9 6.8 0 9.5.7 19.4 8 7.4 5.5 9.3 16.9 9.9 22.3v3.5c-9.6-8.9-29.7-15.8-29.7-15.8m68.1-31.5c-11.3 10.3-22.6 20.7-30.6 12.7-7.2-7.1 3.8-19.6 15.2-29.8 11.3-10.3 22.4-18.2 29.3-11.3 7.4 7.3-2.6 18.1-13.9 28.4"/><path d="m98.1 128.9v.6c0 3 1.3 4.5 4 4.5 2.5 0 3.7-1.7 3.7-3.6 0-2.6-1.3-3.7-3.5-4.3l-2.7-.9c-3.5-1.4-5.1-3.2-5.1-6.7 0-4.4 3-6.9 7.6-6.9 6.2 0 6.9 3.9 6.9 6.4v.5h-3.9v-.5c0-2.2-1-3.5-3.4-3.5-1.7 0-3.3.9-3.3 3.5 0 2.1 1.1 3.1 3.7 4.1l2.6 1c3.4 1.2 4.9 3.1 4.9 6.4 0 5.2-3.1 7.3-8.1 7.3-6 0-7.4-4-7.4-7.4v-.6h4z"/><path d="m116.6 112.1h13.1v3.2h-9.3v6.8h8.8v3.3h-8.8v7.8h9.6v3.2h-13.4z"/><path d="m151.7 127.7v.5c0 4.4-1.8 8.7-7.5 8.7-6.1 0-8.1-4-8.1-12.7 0-8.7 1.9-12.7 8.1-12.7 6.9 0 7.3 5.1 7.3 7.6v.4h-3.9v-.4c0-2.3-.7-4.8-3.5-4.7-2.9 0-4.2 1.8-4.2 9.6 0 7.9 1.3 9.8 4.2 9.8 3.2 0 3.6-3.6 3.6-5.9v-.4h4z"/><path d="m157.6 124.3c0-8.7 2.5-12.7 8.1-12.7 5.6 0 8.1 4 8.1 12.7 0 8.7-2.5 12.7-8.1 12.7-5.7-.1-8.1-4-8.1-12.7m12.2-.2c0-8.2-1.8-9.6-4.2-9.6s-4.2 1.4-4.2 9.6c0 8.4 1.8 9.8 4.2 9.8s4.2-1.4 4.2-9.8"/><path d="m180.9 112.1h4.7l7.1 18.1h.1v-18.1h3.7v24.3h-4.8l-7.1-18.6v18.6h-3.7z"/><path d="m204.2 112.1h6.9c7.6 0 8.6 5 8.6 12.2 0 7.2-1 12.2-8.6 12.2h-6.9v-24.4m3.9 21.4h3.2c3.2 0 4.5-2.1 4.5-9.2 0-6.9-1.2-9.3-4.5-9.3h-3.2v18.5"/><path d="m242.4 128.9v.6c0 3 1.3 4.5 4 4.5 2.5 0 3.7-1.7 3.7-3.6 0-2.6-1.3-3.7-3.5-4.3l-2.7-.9c-3.5-1.4-5.1-3.2-5.1-6.7 0-4.4 3-6.9 7.6-6.9 6.2 0 6.9 3.9 6.9 6.4v.5h-3.9v-.5c0-2.2-1-3.5-3.4-3.5-1.7 0-3.3.9-3.3 3.5 0 2.1 1.1 3.1 3.7 4.1l2.6 1c3.4 1.2 4.9 3.1 4.9 6.4 0 5.2-3.1 7.3-8.1 7.3-6 0-7.4-4-7.4-7.4v-.6h4z"/><path d="m260.2 124.3c0-8.7 2.5-12.7 8.1-12.7 5.6 0 8.1 4 8.1 12.7 0 8.7-2.5 12.7-8.1 12.7-5.6-.1-8.1-4-8.1-12.7m12.3-.2c0-8.2-1.8-9.6-4.2-9.6-2.3 0-4.2 1.4-4.2 9.6 0 8.4 1.8 9.8 4.2 9.8 2.3.1 4.2-1.4 4.2-9.8"/><path d="m283.5 112.1h4.8l7 18.1h.1v-18.1h3.7v24.3h-4.7l-7.1-18.6h-.1v18.6h-3.7z"/><path d="m95 146.2h6.6c4.7 0 6.7 2.8 6.7 6.9 0 3.8-1.9 6.9-7.4 6.9h-3.7v10.6h-2.2v-24.4m2.2 11.9h3.7c2.9 0 5.2-1.3 5.2-5.1 0-3.7-1.8-5-5.2-5h-3.7v10.1"/><path d="m114.1 146.2h7.3c4.1 0 6.3 2.3 6.3 6.1 0 2.9-1.2 5.6-4.4 6.2v.1c3 .3 4.1 2 4.2 5.8l.1 2.7c0 1.3.2 2.6 1 3.6h-2.6c-.5-.9-.6-2.1-.7-3.4l-.1-2c-.1-4.3-.9-5.7-4.8-5.7h-4.1v11.1h-2.2v-24.5m2.2 11.4h3.8c3.4 0 5.5-1.6 5.5-4.8 0-3-1.3-4.8-5.2-4.8h-4v9.6z"/><path d="m141.5 145.8c5 0 7.8 3.9 7.8 12.6 0 8.7-2.8 12.6-7.8 12.6-5 0-7.8-3.9-7.8-12.6 0-8.8 2.8-12.6 7.8-12.6m0 23.3c3.5 0 5.6-2.9 5.6-10.7 0-7.9-2.1-10.7-5.6-10.7-3.5 0-5.6 2.9-5.6 10.7 0 7.9 2.1 10.7 5.6 10.7"/><path d="m155.6 146.2h5.9c7.1 0 8.8 4.2 8.8 12.2s-1.7 12.2-8.8 12.2h-5.9v-24.4m2.2 22.5h3.6c4.8 0 6.8-2.4 6.8-10.3 0-8-2-10.4-6.8-10.4h-3.6v20.7"/><path d="m176.3 146.2h2.2v17.5c0 3.6 1.6 5.4 4.8 5.4 3.2 0 4.8-1.8 4.8-5.4v-17.5h2.2v17.5c0 5.1-2.5 7.2-7 7.2-4.5 0-7-2.1-7-7.2v-17.5"/><path d="m211.2 162.3c-.3 5.6-2.9 8.7-7.2 8.7-5 0-7.8-3.9-7.8-12.6 0-8.7 2.8-12.6 7.8-12.6 4.9 0 7 3.5 7 7.5h-2.2c0-3.3-1.7-5.7-4.8-5.7-3.5 0-5.6 2.9-5.6 10.7 0 7.9 2.1 10.7 5.6 10.7 3.1 0 4.8-2.6 5-6.8h2.2z"/><path d="m221.4 148h-6.3v-1.8h14.8v1.8h-6.3v22.6h-2.2z"/><path d="m234.9 146.2h2.2v24.4h-2.2z"/><path d="m251.3 145.8c5 0 7.8 3.9 7.8 12.6 0 8.7-2.8 12.6-7.8 12.6-5 0-7.8-3.9-7.8-12.6 0-8.8 2.8-12.6 7.8-12.6m0 23.3c3.5 0 5.6-2.9 5.6-10.7 0-7.9-2.1-10.7-5.6-10.7-3.5 0-5.6 2.9-5.6 10.7 0 7.9 2.1 10.7 5.6 10.7"/><path d="m265.4 146.2h3l9.3 21.2h.1v-21.2h2.1v24.4h-2.9l-9.3-21.3h-.1v21.3h-2.2z"/><path d="m297.2 152.4c0-3-1.4-4.8-4.4-4.8-3 0-4.6 1.9-4.6 4.4 0 7.3 11.8 3.3 11.8 11.8 0 4.7-2.9 7.1-7.4 7.1-4.6 0-7.1-2.5-7.1-7.2v-.7h2.2v.9c0 3.1 1.6 5.2 4.8 5.2 3.1 0 5.3-1.5 5.3-4.9 0-7.2-11.8-3.1-11.8-11.9 0-3.8 2.5-6.4 6.7-6.4 4.5 0 6.6 2.3 6.6 6.7h-2.1z"/></g></svg>